<svg xmlns="http://www.w3.org/2000/svg" version="1.1" xmlns:xlink="http://www.w3.org/1999/xlink" xmlns:svgjs="http://svgjs.dev/svgjs" width="2000" height="398" viewBox="0 0 2000 398"><g transform="matrix(1,0,0,1,-1.2121212121213603,0.13382278449429919)"><svg viewBox="0 0 396 79" data-background-color="#ffffff" preserveAspectRatio="xMidYMid meet" height="398" width="2000" xmlns="http://www.w3.org/2000/svg" xmlns:xlink="http://www.w3.org/1999/xlink"><g id="tight-bounds" transform="matrix(1,0,0,1,0.24000000000003752,-0.026562814007661473)"><svg viewBox="0 0 395.5199999999999 79.05312562801532" height="79.05312562801532" width="395.5199999999999"><g><svg viewBox="0 0 395.5199999999999 79.05312562801532" height="79.05312562801532" width="395.5199999999999"><g><svg viewBox="0 0 570.0520341246292 113.937083" height="79.05312562801532" width="395.5199999999999"><g><svg viewBox="0 0 570.0520341246292 113.937083" height="113.937083" width="570.0520341246292"><g id="textblocktransform"><svg viewBox="0 0 570.0520341246292 113.937083" height="113.937083" width="570.0520341246292" id="textblock"><g><svg viewBox="0 0 570.0520341246292 80.4146" height="80.4146" width="570.0520341246292"><g><svg><g></g><g></g></svg></g><g><svg><g><svg></svg></g><g></g></svg></g><g id="text-0"><svg viewBox="0 0 570.0520341246292 80.4146" height="80.4146" width="570.0520341246292"><g transform="matrix(1,0,0,1,0,15.357299999999995)"><svg width="168.95" viewBox="3.25 -38.7 168.93 39.25" height="39.25" data-palette-color="#1d597d"><path d="M12.2-34.85L18.5-15.6 19-15.6 26.3-34.6 33.2-34.4 33.4-12.9 34.35 0 27.6 0 27.85-13 27.3-26.15 21.3-9.6 15.15-9.3 9.55-26.15 9.1-13 9.45 0 3.25 0 3.95-12.15 4.25-33.6 12.2-34.85ZM40.25-24.2L46.95-25.45 46.35-13 46.9-1.25 40.2 0 40.8-12.15 40.25-24.2ZM39.9-32.77Q39.9-34.45 41.2-35.77 42.5-37.1 44.2-37.1 45.9-37.1 46.8-36.18 47.7-35.25 47.7-33.4 47.7-31.55 46.42-30.23 45.15-28.9 43.47-28.9 41.8-28.9 40.85-30 39.9-31.1 39.9-32.77ZM60-4.65L60-4.65Q62.6-4.65 62.6-6.95L62.6-6.95Q62.6-7.75 61.47-8.45 60.35-9.15 58.72-9.85 57.1-10.55 55.47-11.43 53.85-12.3 52.72-13.85 51.6-15.4 51.6-17.4L51.6-17.4Q51.6-20.75 54.55-23.25 57.5-25.75 61.35-25.75L61.35-25.75Q63.15-25.75 64.87-25.33 66.6-24.9 68.2-24L68.2-24 64.85-17.9Q64.5-18.2 63.95-18.65 63.4-19.1 61.87-19.83 60.35-20.55 59.17-20.55 58-20.55 57.37-20.03 56.75-19.5 56.75-18.57 56.75-17.65 58.47-16.73 60.2-15.8 62.25-15.03 64.3-14.25 66.02-12.48 67.75-10.7 67.75-8.25L67.75-8.25Q67.75-4.75 64.87-2.1 62 0.55 58.25 0.55L58.25 0.55Q55.85 0.55 53.77-0.5 51.7-1.55 50.8-2.6L50.8-2.6 49.9-3.65 53.85-8.25Q54.15-7.85 54.7-7.25 55.25-6.65 56.87-5.65 58.5-4.65 60-4.65ZM85.39-25.25L85.39-25.25Q88.74-25.25 90.84-22.35 92.94-19.45 92.94-14.9L92.94-14.9Q92.94-8.35 89.52-4.17 86.09 0 80.64 0L80.64 0Q78.14 0 72.24-0.8L72.24-0.8 72.74-12.15 72.14-37.45 78.99-38.7 78.34-25.8 78.34-20.4Q78.89-21.2 79.69-22.1 80.49-23 82.19-24.13 83.89-25.25 85.39-25.25ZM83.44-18.75L83.44-18.75Q81.14-18.75 78.34-17.35L78.34-17.35 78.34-13 78.64-5.65Q80.74-5.4 82.59-5.4L82.59-5.4Q87.39-5.4 87.39-12.08 87.39-18.75 83.44-18.75ZM102.09 0Q99.14 0 97.27-1.88 95.39-3.75 95.39-6.93 95.39-10.1 98.29-12.43 101.19-14.75 105.34-14.75L105.34-14.75 108.74-14.75 108.74-15.6Q108.74-18.05 107.74-18.95 106.74-19.85 103.99-19.85L103.99-19.85Q102.84-19.85 101.27-19.38 99.69-18.9 97.74-17.9L97.74-17.9 96.29-21.85Q98.44-23.35 101.52-24.55 104.59-25.75 106.59-25.75L106.59-25.75Q114.44-25.75 114.44-18.15L114.44-18.15 114.44-8.35Q114.44-5.55 116.19-2.1L116.19-2.1 110.89 0.15Q109.64-2.25 109.04-4.15L109.04-4.15Q106.29 0 102.09 0L102.09 0ZM104.19-5.1L104.19-5.1Q106.19-5.1 108.74-7.15L108.74-7.15 108.74-10.5Q106.09-11.1 104.44-11.1L104.44-11.1Q101.29-11.1 101.29-8.3L101.29-8.3Q101.29-6.85 102.09-5.98 102.89-5.1 104.19-5.1ZM135.14-12.65Q135.14-16.1 134.54-17.25 133.94-18.4 131.74-18.4 129.54-18.4 126.74-16.65L126.74-16.65 126.74-13 127.29-1.25 120.54 0 121.14-12.15 120.54-37.45 127.39-38.7 126.74-25.75 126.74-19.9Q127.49-20.9 128.44-21.85 129.39-22.8 131.39-24 133.39-25.2 135.66-25.2 137.94-25.2 139.49-23.43 141.04-21.65 141.04-18.6L141.04-18.6 140.74-13 141.29-1 134.54 0.25 135.14-12.65ZM146.74-31.2L146.74-31.2 152.19-31.7Q151.09-25 149.04-19.5L149.04-19.5 146.19-19.65Q146.74-25.95 146.74-31.2ZM163.98-4.65L163.98-4.65Q166.58-4.65 166.58-6.95L166.58-6.95Q166.58-7.75 165.46-8.45 164.33-9.15 162.71-9.85 161.08-10.55 159.46-11.43 157.83-12.3 156.71-13.85 155.58-15.4 155.58-17.4L155.58-17.4Q155.58-20.75 158.53-23.25 161.48-25.75 165.33-25.75L165.33-25.75Q167.13-25.75 168.86-25.33 170.58-24.9 172.18-24L172.18-24 168.83-17.9Q168.48-18.2 167.93-18.65 167.38-19.1 165.86-19.83 164.33-20.55 163.16-20.55 161.98-20.55 161.36-20.03 160.73-19.5 160.73-18.57 160.73-17.65 162.46-16.73 164.18-15.8 166.23-15.03 168.28-14.25 170.01-12.48 171.73-10.7 171.73-8.25L171.73-8.25Q171.73-4.75 168.86-2.1 165.98 0.55 162.23 0.55L162.23 0.55Q159.83 0.55 157.76-0.5 155.68-1.55 154.78-2.6L154.78-2.6 153.88-3.65 157.83-8.25Q158.13-7.85 158.68-7.25 159.23-6.65 160.86-5.65 162.48-4.65 163.98-4.65Z" opacity="1" transform="matrix(1,0,0,1,0,0)" fill="#1d597d" class="undefined-tk-0"></path></svg></g><g><svg xmlns="http://www.w3.org/2000/svg" xml:space="preserve" viewBox="0.7999999999999989 16.3 98.30000000000001 67.4" x="187.9354" y="0" height="80.4146" width="117.28123412462908" class="icon-dxe-0" data-fill-palette-color="accent" id="dxe-0"><path d="M83.8 70.1c0 1-0.8 1.8-1.8 1.8H60.4c-0.6 1.7-2.2 3-4.1 3H43.6c-1.9 0-3.5-1.2-4.1-3H17.9c-1 0-1.8-0.8-1.8-1.8s0.8-1.8 1.8-1.8h23.2c1 0 1.8 0.8 1.8 1.8v0.4c0 0.4 0.3 0.8 0.8 0.8h12.7c0.4 0 0.8-0.3 0.8-0.8v-0.4c0-1 0.8-1.8 1.8-1.8h23.2c0.9 0 1.6 0.8 1.6 1.8m15.3 0v4.7c0 4.9-4 8.9-8.9 8.9H9.7c-4.9 0-8.9-4-8.9-8.9v-4.7c0-1 0.8-1.8 1.8-1.8h5.5V22.1c0-3.2 2.6-5.8 5.8-5.8h72c3.1 0 5.7 2.4 6 5.6v46.4h5.5c1 0 1.7 0.8 1.7 1.8m-3.5 1.7h-5.5c-1 0-1.8-0.8-1.8-1.8V22.2c-0.2-1.4-1.3-2.4-2.5-2.4h-72c-1.3 0-2.3 1-2.3 2.3V70c0 1-0.8 1.8-1.8 1.8H4.4v3c0 3 2.4 5.4 5.4 5.4h80.5c3 0 5.4-2.4 5.4-5.4v-3z m-70-28.5c0.3 0.4 0.8 0.6 1.3 0.6 0.4 0 0.8-0.1 1.1-0.4l8.2-7c0.4-0.3 0.6-0.8 0.6-1.3s-0.2-1-0.6-1.3l-8.2-7c-0.7-0.6-1.8-0.5-2.5 0.2-0.6 0.7-0.5 1.8 0.2 2.5l6.6 5.6-6.6 5.6c-0.6 0.7-0.7 1.8-0.1 2.5M42.8 37h30.3c1 0 1.8-0.8 1.8-1.8s-0.8-1.8-1.8-1.8H42.8c-1 0-1.8 0.8-1.8 1.8s0.8 1.8 1.8 1.8m30.3 7.2H35.2c-1 0-1.8 0.8-1.8 1.8s0.8 1.8 1.8 1.8h37.9c1 0 1.8-0.8 1.8-1.8s-0.9-1.8-1.8-1.8M26.9 58.5H73c1 0 1.8-0.8 1.8-1.8S74 55 73.1 55H26.9c-1 0-1.8 0.8-1.8 1.8s0.9 1.7 1.8 1.7" fill="#83b6b9" data-fill-palette-color="accent"></path></svg></g><g transform="matrix(1,0,0,1,324.2020341246291,15.357299999999995)"><svg width="245.85000000000005" viewBox="1.5 -38.7 245.82 49.7" height="49.7" data-palette-color="#1d597d"><path d="M14.65 0.55L14.65 0.55Q9.1 0.55 5.3-4.1 1.5-8.75 1.5-15.5L1.5-15.5Q1.5-23.75 6.08-29.4 10.65-35.05 17.3-35.05L17.3-35.05Q19.9-35.05 22.13-34.52 24.35-34 25.3-33.45L25.3-33.45 26.2-32.9 22.8-25.95Q21.65-26.95 19.55-27.83 17.45-28.7 15.75-28.7L15.75-28.7Q12.3-28.7 10.23-25.85 8.15-23 8.15-17.73 8.15-12.45 10.3-9.08 12.45-5.7 16.15-5.7L16.15-5.7Q18.55-5.7 20.5-7.2 22.45-8.7 23.25-11.2L23.25-11.2 27.4-8.8Q25.75-4.4 22.35-1.93 18.95 0.55 14.65 0.55ZM28.95-10.45Q28.95-16.85 32.4-21.3 35.85-25.75 40.47-25.75 45.1-25.75 47.67-22.75 50.25-19.75 50.25-14.8L50.25-14.8Q50.25-8.2 46.92-3.83 43.6 0.55 38.55 0.55L38.55 0.55Q34.4 0.55 31.67-2.58 28.95-5.7 28.95-10.45L28.95-10.45ZM44.65-12.2L44.65-12.2Q44.65-19.45 39.7-19.45L39.7-19.45Q34.55-19.45 34.55-12.65L34.55-12.65Q34.55-9.1 36-7.1 37.45-5.1 39.82-5.1 42.2-5.1 43.42-6.93 44.65-8.75 44.65-12.2ZM67.75-4.9L67.75-4.9Q63.85 0 61 0L61 0Q57.45 0 55.17-2.9 52.9-5.8 52.9-10.35L52.9-10.35Q52.9-16.6 56.37-20.9 59.85-25.2 64.9-25.2L64.9-25.2 67.7-24.8 67.7-25.75 67.09-37.45 73.95-38.7 73.3-13 73.3-8.6Q73.3-5.6 74.8-1.7L74.8-1.7 69.4 0.55Q67.95-2.45 67.75-4.9ZM58.5-12.95Q58.5-9.75 59.67-7.95 60.85-6.15 63.07-6.15 65.3-6.15 67.7-7.95L67.7-7.95 67.7-18.75Q64.7-19.35 63.25-19.35L63.25-19.35Q61-19.35 59.75-17.75 58.5-16.15 58.5-12.95ZM88.64-5.1L88.64-5.1Q90.09-5.1 91.69-5.85 93.29-6.6 94.19-7.35L94.19-7.35 95.09-8.1 97.39-5.3Q96.89-4.45 95.84-3.35 94.79-2.25 93.72-1.48 92.64-0.7 90.87-0.08 89.09 0.55 87.19 0.55L87.19 0.55Q83.14 0.55 80.59-2.53 78.04-5.6 78.04-10.45L78.04-10.45Q78.04-16.55 81.59-21.15 85.14-25.75 89.89-25.75L89.89-25.75Q93.54-25.75 95.57-23.7 97.59-21.65 97.59-17.95L97.59-17.95Q97.59-15.75 96.84-12.95L96.84-12.95 95.84-11.9 83.34-10.75Q84.19-5.1 88.64-5.1ZM88.64-20.6L88.64-20.6Q86.44-20.6 84.94-18.82 83.44-17.05 83.19-14.3L83.19-14.3 91.69-15.35Q91.84-16.5 91.84-17.25L91.84-17.25Q91.84-20.6 88.64-20.6ZM127.19 0L110.74 0 111.34-12.15 110.74-33.5 117.84-34.75 117.14-13 117.49-4.9 127.74-5.7 127.19 0ZM130.94-24.2L137.64-25.45 137.04-13 137.59-1.25 130.89 0 131.49-12.15 130.94-24.2ZM130.59-32.77Q130.59-34.45 131.89-35.77 133.19-37.1 134.89-37.1 136.59-37.1 137.49-36.18 138.39-35.25 138.39-33.4 138.39-31.55 137.11-30.23 135.84-28.9 134.16-28.9 132.49-28.9 131.54-30 130.59-31.1 130.59-32.77ZM156.38-25.25L156.38-25.25Q159.73-25.25 161.83-22.35 163.93-19.45 163.93-14.9L163.93-14.9Q163.93-8.35 160.51-4.17 157.08 0 151.63 0L151.63 0Q149.13 0 143.23-0.8L143.23-0.8 143.73-12.15 143.13-37.45 149.98-38.7 149.33-25.8 149.33-20.4Q149.88-21.2 150.68-22.1 151.48-23 153.18-24.13 154.88-25.25 156.38-25.25ZM154.43-18.75L154.43-18.75Q152.13-18.75 149.33-17.35L149.33-17.35 149.33-13 149.63-5.65Q151.73-5.4 153.58-5.4L153.58-5.4Q158.38-5.4 158.38-12.08 158.38-18.75 154.43-18.75ZM167.53-24.15L167.53-24.15 173.58-25.45Q174.03-21.6 174.18-18.15L174.18-18.15Q178.73-25.2 182.73-25.2L182.73-25.2 182.18-17.4Q179.28-17.4 177.61-16.88 175.93-16.35 174.18-14.8L174.18-14.8 174.18-13 174.73-1.25 168.03 0 168.63-12.15Q168.43-18.85 167.53-24.15ZM190.88 0Q187.93 0 186.05-1.88 184.18-3.75 184.18-6.93 184.18-10.1 187.08-12.43 189.98-14.75 194.13-14.75L194.13-14.75 197.53-14.75 197.53-15.6Q197.53-18.05 196.53-18.95 195.53-19.85 192.78-19.85L192.78-19.85Q191.63-19.85 190.05-19.38 188.48-18.9 186.53-17.9L186.53-17.9 185.08-21.85Q187.23-23.35 190.3-24.55 193.38-25.75 195.38-25.75L195.38-25.75Q203.23-25.75 203.23-18.15L203.23-18.15 203.23-8.35Q203.23-5.55 204.98-2.1L204.98-2.1 199.68 0.15Q198.43-2.25 197.83-4.15L197.83-4.15Q195.08 0 190.88 0L190.88 0ZM192.98-5.1L192.98-5.1Q194.98-5.1 197.53-7.15L197.53-7.15 197.53-10.5Q194.88-11.1 193.23-11.1L193.23-11.1Q190.08-11.1 190.08-8.3L190.08-8.3Q190.08-6.85 190.88-5.98 191.68-5.1 192.98-5.1ZM208.78-24.15L208.78-24.15 214.83-25.45Q215.28-21.6 215.43-18.15L215.43-18.15Q219.98-25.2 223.98-25.2L223.98-25.2 223.43-17.4Q220.53-17.4 218.85-16.88 217.18-16.35 215.43-14.8L215.43-14.8 215.43-13 215.98-1.25 209.28 0 209.88-12.15Q209.68-18.85 208.78-24.15ZM234.27 11L227.82 9.65 232.97-1.9 229.27-12 224.22-24.15 230.87-25.4 234.07-14.75 235.72-9.7 236.37-9.7 237.57-13.35 241.17-25.45 247.32-24.7 238.47-1.45 234.27 11Z" opacity="1" transform="matrix(1,0,0,1,0,0)" fill="#1d597d" class="undefined-tk-1"></path></svg></g></svg></g></svg></g><g transform="matrix(1,0,0,1,112.3336420623146,89.680583)"><svg viewBox="0 0 345.38475000000005 24.256500000000003" height="24.256500000000003" width="345.38475000000005"><g transform="matrix(1,0,0,1,0,0)"><svg width="345.38475000000005" viewBox="0.9 -36.95 670.58 47.1" height="24.256500000000003" data-palette-color="#1d597d"><path d="M7.35 0.2L7.35 0.2Q4.75 0.2 3.15-1.93 1.55-4.05 1.55-7.7L1.55-7.7Q1.55-10.05 2.1-12.85 2.65-15.65 3.4-18.48 4.15-21.3 4.7-23.65 5.25-26 5.25-27.35L5.25-27.35Q5.25-29.1 4.2-29.1L4.2-29.1Q3.5-29.1 2.65-28.35 1.8-27.6 1.4-26.4L1.4-26.4 0.9-26.6Q1.05-29.55 2.35-31.65 3.65-33.75 5.55-34.88 7.45-36 9.3-36L9.3-36Q11.25-36 12.65-34.63 14.05-33.25 14.05-30.15L14.05-30.15Q14.05-28.05 13.48-25.45 12.9-22.85 12.13-20.18 11.35-17.5 10.78-15.1 10.2-12.7 10.2-11.05L10.2-11.05Q10.2-9.85 10.6-9.15 11-8.45 11.95-8.45L11.95-8.45Q13.3-8.45 14.75-9.83 16.2-11.2 17.55-13.28 18.9-15.35 20-17.35L20-17.35Q20.8-24.25 22.3-28.35 23.8-32.45 25.58-34.25 27.35-36.05 28.9-36.05L28.9-36.05Q30.55-36.05 31.68-34.43 32.8-32.8 32.8-30.2L32.8-30.2Q32.8-27.9 31.68-25.03 30.55-22.15 27.75-19.2L27.75-19.2Q27.4-17.45 27.18-15.55 26.95-13.65 26.95-11.95L26.95-11.95Q26.95-9.8 27.43-8.38 27.9-6.95 29.1-6.95L29.1-6.95Q29.9-6.95 30.63-7.68 31.35-8.4 31.85-9.85L31.85-9.85 32.25-9.65Q32.25-4.8 30.28-2.3 28.3 0.2 25.6 0.2L25.6 0.2Q23.15 0.2 21.5-2.23 19.85-4.65 19.55-10.45L19.55-10.45Q16.8-4.95 13.45-2.38 10.1 0.2 7.35 0.2ZM41.15 0.15L41.15 0.15Q39.3 0.15 37.8-1.33 36.3-2.8 36.3-5.45L36.3-5.45Q36.3-6.75 36.65-8.4 37-10.05 37.42-11.75 37.85-13.45 38.2-14.95 38.55-16.45 38.55-17.4L38.55-17.4Q38.55-18.4 38.15-18.98 37.75-19.55 37.1-19.55L37.1-19.55Q36.25-19.55 35.25-18.55L35.25-18.55 34.95-18.75Q34.9-19.55 35.3-20.65 35.7-21.75 36.52-22.78 37.35-23.8 38.65-24.5 39.95-25.2 41.75-25.2L41.75-25.2Q44.4-25.2 45.67-23.68 46.95-22.15 46.95-19.95L46.95-19.95Q46.95-19.15 46.8-18.4L46.8-18.4Q47.85-19.95 49.4-21.53 50.95-23.1 52.82-24.15 54.7-25.2 56.7-25.2L56.7-25.2Q59.05-25.2 59.9-23.7 60.75-22.2 60.75-19.95L60.75-19.95Q60.75-17.85 60.3-15.45 59.85-13.05 59.4-10.83 58.95-8.6 58.95-7.1L58.95-7.1Q58.95-5.1 60.1-5.1L60.1-5.1Q60.7-5.1 61.15-5.48 61.6-5.85 61.75-6.2L61.75-6.2 62.1-6.05Q62.1-4.2 61.07-2.8 60.05-1.4 58.5-0.63 56.95 0.15 55.35 0.15L55.35 0.15Q53.4 0.15 51.9-1.2 50.4-2.55 50.4-5.6L50.4-5.6Q50.4-7.4 50.87-9.5 51.35-11.6 51.8-13.55 52.25-15.5 52.25-16.75L52.25-16.75Q52.25-17.5 51.97-17.93 51.7-18.35 51-18.35L51-18.35Q49.85-18.35 48.47-17.3 47.1-16.25 46.12-14.5 45.15-12.75 45.15-10.65L45.15-10.65Q45.15-9.3 45.47-8.05 45.8-6.8 45.8-5.35L45.8-5.35Q45.8-2.65 44.4-1.25 43 0.15 41.15 0.15ZM70.45 0.2L70.45 0.2Q69.1 0.2 67.82-0.48 66.55-1.15 65.75-2.65 64.95-4.15 64.95-6.5L64.95-6.5Q64.95-8.6 65.52-11.43 66.1-14.25 66.82-17.3 67.55-20.35 68.1-23.25 68.65-26.15 68.6-28.4L68.6-28.4Q68.6-30.55 68.1-31.45L68.1-31.45 68.05-31.6Q68.6-33.2 70-34.1 71.4-35 72.95-35L72.95-35Q74.7-35 76.07-33.68 77.45-32.35 77.45-29.25L77.45-29.25Q77.45-27.6 77.05-25.33 76.65-23.05 76.1-20.48 75.55-17.9 74.97-15.4 74.4-12.9 74-10.8 73.6-8.7 73.6-7.35L73.6-7.35Q73.6-5.95 74-5.43 74.4-4.9 74.9-4.9L74.9-4.9Q75.45-4.9 75.95-5.33 76.45-5.75 76.6-6.1L76.6-6.1 77-6Q76.95-4.2 75.97-2.8 75-1.4 73.52-0.6 72.05 0.2 70.45 0.2ZM90.94 0.35L90.94 0.35Q87.19 0.35 84.74-1.15 82.29-2.65 81.12-5.13 79.94-7.6 79.94-10.4L79.94-10.4Q79.94-13.05 80.92-15.7 81.89-18.35 83.77-20.53 85.64-22.7 88.34-24.03 91.04-25.35 94.54-25.35L94.54-25.35Q98.29-25.35 100.72-23.83 103.14-22.3 104.32-19.8 105.49-17.3 105.49-14.45L105.49-14.45Q105.49-11.85 104.54-9.22 103.59-6.6 101.72-4.42 99.84-2.25 97.14-0.95 94.44 0.35 90.94 0.35ZM92.29-3.9L92.29-3.9Q93.64-3.9 94.54-5.3 95.44-6.7 95.89-8.88 96.34-11.05 96.34-13.3L96.34-13.3Q96.34-15.3 95.97-17.07 95.59-18.85 94.84-19.98 94.09-21.1 92.89-21.1L92.89-21.1Q91.59-21.1 90.67-19.7 89.74-18.3 89.29-16.15 88.84-14 88.84-11.7L88.84-11.7Q88.84-9.7 89.22-7.93 89.59-6.15 90.34-5.03 91.09-3.9 92.29-3.9ZM118.04 0.35L118.04 0.35Q114.74 0.35 112.47-1.15 110.19-2.65 109.04-5.08 107.89-7.5 107.89-10.3L107.89-10.3Q107.89-12.95 108.92-15.6 109.94-18.25 111.94-20.48 113.94-22.7 116.82-24.03 119.69-25.35 123.44-25.35L123.44-25.35Q127.14-25.35 128.94-23.88 130.74-22.4 130.74-20.65L130.74-20.65Q130.74-18.8 128.89-17.25 127.04-15.7 123.49-15.7L123.49-15.7Q123.69-16.45 123.82-17.23 123.94-18 123.94-18.7L123.94-18.7Q123.94-19.75 123.49-20.48 123.04-21.2 121.89-21.2L121.89-21.2Q120.84-21.2 119.67-20.25 118.49-19.3 117.67-17.45 116.84-15.6 116.84-12.9L116.84-12.9Q116.84-10.25 117.72-8.6 118.59-6.95 119.99-6.23 121.39-5.5 122.94-5.5L122.94-5.5Q124.99-5.5 126.89-6.58 128.79-7.65 129.64-9.55L129.64-9.55 130.14-9.35Q130.14-6.75 128.97-4.93 127.79-3.1 125.94-1.93 124.09-0.75 121.99-0.2 119.89 0.35 118.04 0.35ZM151.34 0.25L151.34 0.25Q149.69 0.25 148.24-0.53 146.79-1.3 145.89-2.8 144.99-4.3 144.99-6.4L144.99-6.4Q144.99-8.55 146.04-11.25L146.04-11.25Q146.84-11.65 147.94-12.5 149.04-13.35 149.89-14.43 150.74-15.5 150.74-16.55L150.74-16.55Q150.74-17.5 150.01-18.05 149.29-18.6 148.24-18.6L148.24-18.6Q146.94-18.6 145.79-17.8 144.64-17 143.76-15.73 142.89-14.45 142.41-12.98 141.94-11.5 141.94-10.15L141.94-10.15Q141.94-8.85 142.26-7.73 142.59-6.6 142.59-5.15L142.59-5.15Q142.59-2.9 141.39-1.35 140.19 0.2 137.84 0.2L137.84 0.2Q135.69 0.2 134.39-1.25 133.09-2.7 133.09-5.2L133.09-5.2Q133.09-6.5 133.41-8.65 133.74-10.8 134.24-13.4 134.74-16 135.21-18.78 135.69-21.55 136.01-24.13 136.34-26.7 136.34-28.75L136.34-28.75Q136.34-29.85 136.21-30.78 136.09-31.7 135.69-32.25L135.69-32.25 135.69-32.55Q136.79-33.8 138.09-34.4 139.39-35 140.64-35L140.64-35Q142.54-35 143.89-33.65 145.24-32.3 145.24-29.65L145.24-29.65Q145.24-28.25 144.86-26.25 144.49-24.25 143.96-22.05 143.44-19.85 142.89-17.85L142.89-17.85Q143.99-19.45 145.39-21.15 146.79-22.85 148.54-24.03 150.29-25.2 152.49-25.2L152.49-25.2Q155.04-25.2 156.49-23.58 157.94-21.95 157.94-19.7L157.94-19.7Q157.94-17.45 156.31-14.9 154.69-12.35 150.89-10.6L150.89-10.6Q151.54-9.15 152.69-8 153.84-6.85 155.21-6.23 156.59-5.6 157.79-5.6L157.79-5.6Q158.39-5.6 158.84-5.8L158.84-5.8 159.14-5.5Q157.89-2.6 155.71-1.18 153.54 0.25 151.34 0.25ZM170.04-26.75L170.04-26.75Q168.04-26.75 166.76-27.98 165.49-29.2 165.49-31.05L165.49-31.05Q165.49-33.05 166.99-34.5 168.49-35.95 170.64-35.95L170.64-35.95Q172.64-35.95 173.91-34.7 175.19-33.45 175.19-31.6L175.19-31.6Q175.19-29.6 173.69-28.18 172.19-26.75 170.04-26.75ZM166.54 0.2L166.54 0.2Q164.59 0.2 163.04-1.18 161.49-2.55 161.49-5.6L161.49-5.6Q161.49-7.35 161.96-8.88 162.44-10.4 163.06-11.85 163.69-13.3 164.16-14.68 164.64-16.05 164.64-17.4L164.64-17.4Q164.64-18.6 164.24-19.13 163.84-19.65 163.29-19.65L163.29-19.65Q162.44-19.65 161.64-18.55L161.64-18.55 161.29-18.75Q161.49-20.75 162.56-22.18 163.64-23.6 165.21-24.4 166.79-25.2 168.34-25.2L168.34-25.2Q170.24-25.2 171.64-23.98 173.04-22.75 173.04-20L173.04-20Q173.04-18.35 172.56-16.53 172.09-14.7 171.46-12.9 170.84-11.1 170.36-9.55 169.89-8 169.89-6.9L169.89-6.9Q169.89-5.95 170.26-5.55 170.64-5.15 171.09-5.15L171.09-5.15Q171.54-5.15 171.96-5.43 172.39-5.7 172.59-6.05L172.59-6.05 172.94-5.95Q172.94-4.1 171.96-2.73 170.99-1.35 169.54-0.58 168.09 0.2 166.54 0.2ZM182.73 0.15L182.73 0.15Q180.88 0.15 179.38-1.33 177.88-2.8 177.88-5.45L177.88-5.45Q177.88-6.75 178.23-8.4 178.58-10.05 179.01-11.75 179.43-13.45 179.78-14.95 180.13-16.45 180.13-17.4L180.13-17.4Q180.13-18.4 179.73-18.98 179.33-19.55 178.68-19.55L178.68-19.55Q177.83-19.55 176.83-18.55L176.83-18.55 176.53-18.75Q176.48-19.55 176.88-20.65 177.28-21.75 178.11-22.78 178.93-23.8 180.23-24.5 181.53-25.2 183.33-25.2L183.33-25.2Q185.98-25.2 187.26-23.68 188.53-22.15 188.53-19.95L188.53-19.95Q188.53-19.15 188.38-18.4L188.38-18.4Q189.43-19.95 190.98-21.53 192.53-23.1 194.41-24.15 196.28-25.2 198.28-25.2L198.28-25.2Q200.63-25.2 201.48-23.7 202.33-22.2 202.33-19.95L202.33-19.95Q202.33-17.85 201.88-15.45 201.43-13.05 200.98-10.83 200.53-8.6 200.53-7.1L200.53-7.1Q200.53-5.1 201.68-5.1L201.68-5.1Q202.28-5.1 202.73-5.48 203.18-5.85 203.33-6.2L203.33-6.2 203.68-6.05Q203.68-4.2 202.66-2.8 201.63-1.4 200.08-0.63 198.53 0.15 196.93 0.15L196.93 0.15Q194.98 0.15 193.48-1.2 191.98-2.55 191.98-5.6L191.98-5.6Q191.98-7.4 192.46-9.5 192.93-11.6 193.38-13.55 193.83-15.5 193.83-16.75L193.83-16.75Q193.83-17.5 193.56-17.93 193.28-18.35 192.58-18.35L192.58-18.35Q191.43-18.35 190.06-17.3 188.68-16.25 187.71-14.5 186.73-12.75 186.73-10.65L186.73-10.65Q186.73-9.3 187.06-8.05 187.38-6.8 187.38-5.35L187.38-5.35Q187.38-2.65 185.98-1.25 184.58 0.15 182.73 0.15ZM218.48 10L218.48 10Q216.03 10 214.43 8.55 212.83 7.1 212.83 4.45L212.83 4.45Q212.83 1.6 214.83-2.25L214.83-2.25Q214.48-2.15 214.13-2.1 213.78-2.05 213.43-2.05L213.43-2.05Q210.53-2.05 208.56-4.58 206.58-7.1 206.58-11.6L206.58-11.6Q206.58-15.65 208.16-18.75 209.73-21.85 212.18-23.6 214.63-25.35 217.28-25.35L217.28-25.35Q219.13-25.35 220.63-24.43 222.13-23.5 223.08-21.45L223.08-21.45Q223.13-21.95 223.13-22.35 223.13-22.75 223.13-23.1L223.13-23.1Q223.13-23.95 224.43-24.5 225.73-25.05 227.33-25.05L227.33-25.05Q228.78-25.05 230.03-24.5 231.28-23.95 231.68-22.65L231.68-22.65 231.78-22.35Q231.33-21.95 231.01-19.75 230.68-17.55 230.23-13.65L230.23-13.65Q229.93-11.2 229.48-8.08 229.03-4.95 228.26-1.78 227.48 1.4 226.23 4.08 224.98 6.75 223.08 8.38 221.18 10 218.48 10ZM216.83-7.8L216.83-7.8Q218.28-7.8 220.06-10.18 221.83-12.55 222.88-17L222.88-17Q221.98-18.95 221.06-19.78 220.13-20.6 219.18-20.6L219.18-20.6Q217.93-20.6 216.83-19.35 215.73-18.1 215.06-16.18 214.38-14.25 214.38-12.2L214.38-12.2Q214.38-10.1 215.08-8.95 215.78-7.8 216.83-7.8ZM216.23 4.25L216.23 4.25Q217.93 4.25 219.71 0.93 221.48-2.4 222.18-8.45L222.18-8.45Q218.38-3.3 216.91-0.53 215.43 2.25 215.43 3.4L215.43 3.4Q215.43 4.25 216.23 4.25ZM250.28 0.2L250.28 0.2Q248.68 0.2 247.25-0.53 245.83-1.25 244.95-2.8 244.08-4.35 244.08-6.75L244.08-6.75Q244.08-8.05 244.33-10.15 244.58-12.25 245-14.75 245.43-17.25 245.88-19.75L245.88-19.75Q244.88-19.7 243.95-19.55 243.03-19.4 242.13-19.2L242.13-19.2 242.03-19.55Q243.03-20.75 244.13-21.6 245.23-22.45 246.43-23L246.43-23Q247.08-26.3 247.53-28.73 247.98-31.15 247.98-31.6L247.98-31.6Q247.98-32.45 249.3-33 250.63-33.55 252.28-33.55L252.28-33.55Q253.73-33.55 255-33 256.28-32.45 256.73-31.15L256.73-31.15Q256.43-30.85 255.88-28.93 255.33-27 254.73-24.25L254.73-24.25Q255.68-24.2 256.68-24.15 257.68-24.1 258.73-24L258.73-24Q258.83-23.7 258.88-23.35 258.93-23 258.93-22.6L258.93-22.6Q258.93-21.85 258.7-20.98 258.48-20.1 258.18-19.4L258.18-19.4Q256.98-19.5 255.93-19.63 254.88-19.75 253.88-19.8L253.88-19.8Q253.48-17.65 253.15-15.5 252.83-13.35 252.65-11.6 252.48-9.85 252.48-8.85L252.48-8.85Q252.48-6.75 253.25-6.05 254.03-5.35 255.13-5.35L255.13-5.35Q256.13-5.35 256.93-5.75 257.73-6.15 258.08-6.7L258.08-6.7 258.58-6.55Q258.28-4.5 256.98-2.98 255.68-1.45 253.88-0.63 252.08 0.2 250.28 0.2ZM265.82 0.2L265.82 0.2Q263.67 0.2 262.37-1.25 261.07-2.7 261.07-5.2L261.07-5.2Q261.07-6.55 261.42-8.72 261.77-10.9 262.3-13.53 262.82-16.15 263.32-18.88 263.82-21.6 264.17-24.15 264.52-26.7 264.52-28.65L264.52-28.65Q264.52-31.1 263.87-32.2L263.87-32.2 263.87-32.5Q264.97-33.75 266.27-34.35 267.57-34.95 268.82-34.95L268.82-34.95Q270.72-34.95 272.07-33.6 273.42-32.25 273.42-29.55L273.42-29.55Q273.42-28.1 273.02-26 272.62-23.9 272.07-21.6 271.52-19.3 270.97-17.3L270.97-17.3Q271.92-19.15 273.5-20.98 275.07-22.8 277.1-24 279.12-25.2 281.32-25.2L281.32-25.2Q283.82-25.2 284.7-23.65 285.57-22.1 285.57-19.8L285.57-19.8Q285.57-17.7 285.12-15.33 284.67-12.95 284.22-10.78 283.77-8.6 283.77-7.15L283.77-7.15Q283.77-5.05 285.02-5.05L285.02-5.05Q285.57-5.05 286-5.38 286.42-5.7 286.62-6.1L286.62-6.1 286.97-5.85Q286.97-3.9 286.02-2.55 285.07-1.2 283.6-0.5 282.12 0.2 280.57 0.2L280.57 0.2Q278.52 0.2 276.87-1.18 275.22-2.55 275.22-5.65L275.22-5.65Q275.22-7.4 275.7-9.45 276.17-11.5 276.62-13.43 277.07-15.35 277.07-16.65L277.07-16.65Q277.07-18.35 275.87-18.35L275.87-18.35Q274.77-18.35 273.47-17.25 272.17-16.15 271.2-14.5 270.22-12.85 269.92-11.25L269.92-11.25Q269.82-10.85 269.82-10.3L269.82-10.3Q269.82-9.05 270.2-7.9 270.57-6.75 270.57-5.2L270.57-5.2Q270.57-2.9 269.37-1.35 268.17 0.2 265.82 0.2ZM300.37 0.35L300.37 0.35Q296.72 0.35 294.32-1.13 291.92-2.6 290.72-5.03 289.52-7.45 289.52-10.25L289.52-10.25Q289.52-12.9 290.55-15.58 291.57-18.25 293.55-20.45 295.52-22.65 298.35-24 301.17-25.35 304.72-25.35L304.72-25.35Q309.12-25.35 311.15-23.38 313.17-21.4 313.17-18.6L313.17-18.6Q313.17-16.2 311.9-14.18 310.62-12.15 308.52-10.93 306.42-9.7 303.92-9.7L303.92-9.7Q302.62-9.7 301.27-10.1 299.92-10.5 298.62-11.35L298.62-11.35Q298.87-8.25 300.42-6.85 301.97-5.45 304.12-5.45L304.12-5.45Q305.62-5.45 307.12-6.03 308.62-6.6 309.9-7.53 311.17-8.45 311.87-9.5L311.87-9.5 312.22-9.25Q312.22-6.65 311.15-4.83 310.07-3 308.32-1.85 306.57-0.7 304.5-0.18 302.42 0.35 300.37 0.35ZM301.52-13.15L301.52-13.15Q303.12-13.15 304.12-14.08 305.12-15 305.62-16.25 306.12-17.5 306.12-18.45L306.12-18.45Q306.12-19.6 305.47-20.38 304.82-21.15 303.67-21.15L303.67-21.15Q302.77-21.15 301.7-20.5 300.62-19.85 299.77-18.28 298.92-16.7 298.67-13.9L298.67-13.9Q300.27-13.15 301.52-13.15ZM333.32 0.3L333.32 0.3Q329.97 0.3 327.79-0.85 325.62-2 324.57-3.8 323.52-5.6 323.52-7.5L323.52-7.5Q323.52-9.35 324.42-11.03 325.32-12.7 326.99-13.8 328.67-14.9 330.97-14.9L330.97-14.9Q330.92-14.45 330.92-14.08 330.92-13.7 330.92-13.7L330.92-13.7Q330.92-10.35 331.57-8.43 332.22-6.5 333.22-5.68 334.22-4.85 335.27-4.85L335.27-4.85Q336.87-4.85 338.12-6.13 339.37-7.4 339.37-9.1L339.37-9.1Q339.37-11 337.74-12.45 336.12-13.9 333.62-15.65L333.62-15.65Q332.22-16.7 330.64-18.03 329.07-19.35 327.97-21.18 326.87-23 326.87-25.5L326.87-25.5Q326.87-28.1 328.09-30.1 329.32-32.1 331.34-33.48 333.37-34.85 335.79-35.58 338.22-36.3 340.62-36.3L340.62-36.3Q343.57-36.3 345.47-35.35 347.37-34.4 348.32-32.9 349.27-31.4 349.27-29.8L349.27-29.8Q349.27-28.3 348.44-26.93 347.62-25.55 346.02-24.7 344.42-23.85 342.07-23.85L342.07-23.85Q342.22-24.55 342.27-25.13 342.32-25.7 342.32-26.15L342.32-26.15Q342.32-28.65 341.24-29.73 340.17-30.8 338.87-30.8L338.87-30.8Q337.62-30.8 336.47-29.88 335.32-28.95 335.32-26.9L335.32-26.9Q335.32-25.15 336.24-23.9 337.17-22.65 338.64-21.7 340.12-20.75 341.77-19.85L341.77-19.85Q343.47-18.95 345.04-17.88 346.62-16.8 347.67-15.35 348.72-13.9 348.72-11.7L348.72-11.7Q348.72-9.4 347.47-7.23 346.22-5.05 344.07-3.38 341.92-1.7 339.14-0.7 336.37 0.3 333.32 0.3ZM362.56 0.35L362.56 0.35Q358.91 0.35 356.51-1.13 354.11-2.6 352.91-5.03 351.71-7.45 351.71-10.25L351.71-10.25Q351.71-12.9 352.74-15.58 353.76-18.25 355.74-20.45 357.71-22.65 360.54-24 363.36-25.35 366.91-25.35L366.91-25.35Q371.31-25.35 373.34-23.38 375.36-21.4 375.36-18.6L375.36-18.6Q375.36-16.2 374.09-14.18 372.81-12.15 370.71-10.93 368.61-9.7 366.11-9.7L366.11-9.7Q364.81-9.7 363.46-10.1 362.11-10.5 360.81-11.35L360.81-11.35Q361.06-8.25 362.61-6.85 364.16-5.45 366.31-5.45L366.31-5.45Q367.81-5.45 369.31-6.03 370.81-6.6 372.09-7.53 373.36-8.45 374.06-9.5L374.06-9.5 374.41-9.25Q374.41-6.65 373.34-4.83 372.26-3 370.51-1.85 368.76-0.7 366.69-0.18 364.61 0.35 362.56 0.35ZM363.71-13.15L363.71-13.15Q365.31-13.15 366.31-14.08 367.31-15 367.81-16.25 368.31-17.5 368.31-18.45L368.31-18.45Q368.31-19.6 367.66-20.38 367.01-21.15 365.86-21.15L365.86-21.15Q364.96-21.15 363.89-20.5 362.81-19.85 361.96-18.28 361.11-16.7 360.86-13.9L360.86-13.9Q362.46-13.15 363.71-13.15ZM387.51 0.35L387.51 0.35Q384.21 0.35 381.94-1.15 379.66-2.65 378.51-5.08 377.36-7.5 377.36-10.3L377.36-10.3Q377.36-12.95 378.39-15.6 379.41-18.25 381.41-20.48 383.41-22.7 386.29-24.03 389.16-25.35 392.91-25.35L392.91-25.35Q396.61-25.35 398.41-23.88 400.21-22.4 400.21-20.65L400.21-20.65Q400.21-18.8 398.36-17.25 396.51-15.7 392.96-15.7L392.96-15.7Q393.16-16.45 393.29-17.23 393.41-18 393.41-18.7L393.41-18.7Q393.41-19.75 392.96-20.48 392.51-21.2 391.36-21.2L391.36-21.2Q390.31-21.2 389.14-20.25 387.96-19.3 387.14-17.45 386.31-15.6 386.31-12.9L386.31-12.9Q386.31-10.25 387.19-8.6 388.06-6.95 389.46-6.23 390.86-5.5 392.41-5.5L392.41-5.5Q394.46-5.5 396.36-6.58 398.26-7.65 399.11-9.55L399.11-9.55 399.61-9.35Q399.61-6.75 398.44-4.93 397.26-3.1 395.41-1.93 393.56-0.75 391.46-0.2 389.36 0.35 387.51 0.35ZM408.16 0.2L408.16 0.2Q406.36 0.2 404.96-1.28 403.56-2.75 403.56-5.45L403.56-5.45Q403.56-6.75 403.86-8.4 404.16-10.05 404.56-11.78 404.96-13.5 405.26-15.03 405.56-16.55 405.56-17.55L405.56-17.55Q405.56-18.6 405.18-19.23 404.81-19.85 404.21-19.85L404.21-19.85Q403.26-19.85 402.26-18.55L402.26-18.55 401.96-18.75Q401.91-19.55 402.31-20.65 402.71-21.75 403.56-22.78 404.41-23.8 405.73-24.5 407.06-25.2 408.86-25.2L408.86-25.2Q411.51-25.2 412.71-23.68 413.91-22.15 413.91-20L413.91-20Q413.91-19.65 413.88-19.28 413.86-18.9 413.81-18.55L413.81-18.55Q415.61-21.8 417.58-23.53 419.56-25.25 421.26-25.25L421.26-25.25Q422.86-25.25 423.61-24 424.36-22.75 424.36-21L424.36-21Q424.36-19.4 423.73-17.75 423.11-16.1 421.88-15.03 420.66-13.95 418.91-14L418.91-14 418.71-14.1Q418.66-15.4 417.86-16.15 417.06-16.9 416.06-16.9L416.06-16.9Q414.71-16.9 413.53-15.55 412.36-14.2 412.36-11.65L412.36-11.65Q412.36-10.1 412.71-8.3 413.06-6.5 413.06-5.25L413.06-5.25Q413.06-3.75 412.36-2.5 411.66-1.25 410.56-0.53 409.46 0.2 408.16 0.2ZM436.61 0.35L436.61 0.35Q432.96 0.35 430.56-1.13 428.16-2.6 426.96-5.03 425.76-7.45 425.76-10.25L425.76-10.25Q425.76-12.9 426.78-15.58 427.81-18.25 429.78-20.45 431.76-22.65 434.58-24 437.41-25.35 440.96-25.35L440.96-25.35Q445.36-25.35 447.38-23.38 449.41-21.4 449.41-18.6L449.41-18.6Q449.41-16.2 448.13-14.18 446.86-12.15 444.76-10.93 442.66-9.7 440.16-9.7L440.16-9.7Q438.86-9.7 437.51-10.1 436.16-10.5 434.86-11.35L434.86-11.35Q435.11-8.25 436.66-6.85 438.21-5.45 440.36-5.45L440.36-5.45Q441.86-5.45 443.36-6.03 444.86-6.6 446.13-7.53 447.41-8.45 448.11-9.5L448.11-9.5 448.46-9.25Q448.46-6.65 447.38-4.83 446.31-3 444.56-1.85 442.81-0.7 440.73-0.18 438.66 0.35 436.61 0.35ZM437.76-13.15L437.76-13.15Q439.36-13.15 440.36-14.08 441.36-15 441.86-16.25 442.36-17.5 442.36-18.45L442.36-18.45Q442.36-19.6 441.71-20.38 441.06-21.15 439.91-21.15L439.91-21.15Q439.01-21.15 437.93-20.5 436.86-19.85 436.01-18.28 435.16-16.7 434.91-13.9L434.91-13.9Q436.51-13.15 437.76-13.15ZM459 0.2L459 0.2Q457.4 0.2 455.98-0.53 454.55-1.25 453.68-2.8 452.8-4.35 452.8-6.75L452.8-6.75Q452.8-8.05 453.05-10.15 453.3-12.25 453.73-14.75 454.15-17.25 454.6-19.75L454.6-19.75Q453.6-19.7 452.68-19.55 451.75-19.4 450.85-19.2L450.85-19.2 450.75-19.55Q451.75-20.75 452.85-21.6 453.95-22.45 455.15-23L455.15-23Q455.8-26.3 456.25-28.73 456.7-31.15 456.7-31.6L456.7-31.6Q456.7-32.45 458.03-33 459.35-33.55 461-33.55L461-33.55Q462.45-33.55 463.73-33 465-32.45 465.45-31.15L465.45-31.15Q465.15-30.85 464.6-28.93 464.05-27 463.45-24.25L463.45-24.25Q464.4-24.2 465.4-24.15 466.4-24.1 467.45-24L467.45-24Q467.55-23.7 467.6-23.35 467.65-23 467.65-22.6L467.65-22.6Q467.65-21.85 467.43-20.98 467.2-20.1 466.9-19.4L466.9-19.4Q465.7-19.5 464.65-19.63 463.6-19.75 462.6-19.8L462.6-19.8Q462.2-17.65 461.88-15.5 461.55-13.35 461.38-11.6 461.2-9.85 461.2-8.85L461.2-8.85Q461.2-6.75 461.98-6.05 462.75-5.35 463.85-5.35L463.85-5.35Q464.85-5.35 465.65-5.75 466.45-6.15 466.8-6.7L466.8-6.7 467.3-6.55Q467-4.5 465.7-2.98 464.4-1.45 462.6-0.63 460.8 0.2 459 0.2ZM478.05 0.45L478.05 0.45Q474.95 0.45 472.9-0.4 470.85-1.25 469.85-2.58 468.85-3.9 468.85-5.25L468.85-5.25Q468.85-7.15 470.55-8.63 472.25-10.1 475.15-10.1L475.15-10.1Q475.15-7.55 475.8-6.03 476.45-4.5 477.48-3.85 478.5-3.2 479.45-3.2L479.45-3.2Q480.6-3.2 481.38-3.88 482.15-4.55 482.15-5.55L482.15-5.55Q482.15-6.95 480.7-8 479.25-9.05 476.95-10.35L476.95-10.35Q475.8-11.05 474.45-11.98 473.1-12.9 472.15-14.23 471.2-15.55 471.2-17.4L471.2-17.4Q471.2-19.35 472.33-20.85 473.45-22.35 475.3-23.38 477.15-24.4 479.3-24.93 481.45-25.45 483.5-25.45L483.5-25.45Q487.35-25.45 489.3-23.9 491.25-22.35 491.25-20.6L491.25-20.6Q491.25-19.1 489.75-17.9 488.25-16.7 485.15-16.7L485.15-16.7Q485.2-19.25 484.1-20.43 483-21.6 481.75-21.6L481.75-21.6Q480.85-21.6 480.25-21.05 479.65-20.5 479.65-19.45L479.65-19.45Q479.65-18.25 480.43-17.38 481.2-16.5 482.38-15.83 483.55-15.15 484.8-14.55L484.8-14.55Q486.5-13.75 488-12.85 489.5-11.95 490.45-10.8 491.4-9.65 491.4-8L491.4-8Q491.4-5.75 489.58-3.83 487.75-1.9 484.7-0.73 481.65 0.45 478.05 0.45ZM514.2 0.35L514.2 0.35Q510.45 0.35 508-1.15 505.55-2.65 504.37-5.13 503.2-7.6 503.2-10.4L503.2-10.4Q503.2-13.05 504.17-15.7 505.15-18.35 507.02-20.53 508.9-22.7 511.6-24.03 514.3-25.35 517.8-25.35L517.8-25.35Q521.55-25.35 523.97-23.83 526.4-22.3 527.57-19.8 528.75-17.3 528.75-14.45L528.75-14.45Q528.75-11.85 527.8-9.22 526.85-6.6 524.97-4.42 523.1-2.25 520.4-0.95 517.7 0.35 514.2 0.35ZM515.55-3.9L515.55-3.9Q516.9-3.9 517.8-5.3 518.7-6.7 519.15-8.88 519.6-11.05 519.6-13.3L519.6-13.3Q519.6-15.3 519.22-17.07 518.85-18.85 518.1-19.98 517.35-21.1 516.15-21.1L516.15-21.1Q514.85-21.1 513.92-19.7 513-18.3 512.55-16.15 512.1-14 512.1-11.7L512.1-11.7Q512.1-9.7 512.47-7.93 512.85-6.15 513.6-5.03 514.35-3.9 515.55-3.9ZM536.89 10.15L536.89 10.15Q535.44 10.15 534.14 9.63 532.84 9.1 532.34 8.05L532.34 8.05Q533.54 2.95 534.32-1 535.09-4.95 535.54-8.05 535.99-11.15 536.19-13.73 536.39-16.3 536.44-18.7L536.44-18.7Q534.74-18.6 533.19-18.38 531.64-18.15 530.49-17.75L530.49-17.75 530.39-18.1Q531.84-19.55 533.39-20.53 534.94-21.5 536.49-22.1L536.49-22.1 536.49-25.9Q536.49-29.75 538.04-32.18 539.59-34.6 542.02-35.77 544.44-36.95 547.04-36.95L547.04-36.95Q550.49-36.95 552.22-35.3 553.94-33.65 553.94-31.6L553.94-31.6Q553.94-30.1 553.02-28.7 552.09-27.3 550.24-26.38 548.39-25.45 545.59-25.45L545.59-25.45Q546.39-26.9 546.82-28.35 547.24-29.8 547.24-30.9L547.24-30.9Q547.24-31.75 546.99-32.27 546.74-32.8 546.29-32.8L546.29-32.8Q545.34-32.8 544.47-30.43 543.59-28.05 543.59-24.2L543.59-24.2 543.59-23.25Q545.04-23.3 546.37-23.2 547.69-23.1 548.84-23L548.84-23Q548.94-22.65 548.99-22.25 549.04-21.85 549.04-21.45L549.04-21.45Q549.04-20.7 548.84-19.95 548.64-19.2 548.29-18.4L548.29-18.4Q547.39-18.5 546.24-18.6 545.09-18.7 543.79-18.75L543.79-18.75 543.79-17.65Q543.79-14.9 543.57-11.3 543.34-7.7 542.74-2.75 542.14 2.2 540.89 9.05L540.89 9.05Q539.34 10.15 536.89 10.15ZM572.89 0.3L572.89 0.3Q569.74 0.3 567.46-0.98 565.19-2.25 563.71-4.48 562.24-6.7 561.56-9.53 560.89-12.35 560.99-15.4L560.99-15.4Q561.19-20.85 562.99-24.8 564.79-28.75 567.54-31.3 570.29-33.85 573.46-35.08 576.64-36.3 579.59-36.3L579.59-36.3Q582.09-36.3 584.11-35.48 586.14-34.65 587.34-33.08 588.54-31.5 588.54-29.25L588.54-29.25Q588.54-27.5 587.51-25.88 586.49-24.25 584.41-23.23 582.34-22.2 579.09-22.2L579.09-22.2Q579.64-23.8 579.89-25 580.14-26.2 580.14-27.05L580.14-27.05Q580.14-28.8 579.34-29.43 578.54-30.05 577.34-30.05L577.34-30.05Q575.89-30.05 574.59-29 573.29-27.95 572.26-26.18 571.24-24.4 570.64-22.25 570.04-20.1 569.94-17.9L569.94-17.9Q569.74-12.35 571.54-9.5 573.34-6.65 576.19-6.65L576.19-6.65Q578.39-6.65 581.06-8.45 583.74-10.25 586.34-13.9L586.34-13.9 586.99-13.6Q586.34-9.1 584.14-6 581.94-2.9 578.96-1.3 575.99 0.3 572.89 0.3ZM601.38 0.35L601.38 0.35Q597.63 0.35 595.18-1.15 592.73-2.65 591.56-5.13 590.38-7.6 590.38-10.4L590.38-10.4Q590.38-13.05 591.36-15.7 592.33-18.35 594.21-20.53 596.08-22.7 598.78-24.03 601.48-25.35 604.98-25.35L604.98-25.35Q608.73-25.35 611.16-23.83 613.58-22.3 614.76-19.8 615.93-17.3 615.93-14.45L615.93-14.45Q615.93-11.85 614.98-9.22 614.03-6.6 612.16-4.42 610.28-2.25 607.58-0.95 604.88 0.35 601.38 0.35ZM602.73-3.9L602.73-3.9Q604.08-3.9 604.98-5.3 605.88-6.7 606.33-8.88 606.78-11.05 606.78-13.3L606.78-13.3Q606.78-15.3 606.41-17.07 606.03-18.85 605.28-19.98 604.53-21.1 603.33-21.1L603.33-21.1Q602.03-21.1 601.11-19.7 600.18-18.3 599.73-16.15 599.28-14 599.28-11.7L599.28-11.7Q599.28-9.7 599.66-7.93 600.03-6.15 600.78-5.03 601.53-3.9 602.73-3.9ZM625.98 0.2L625.98 0.2Q624.18 0.2 622.61-1.05 621.03-2.3 620.06-4.7 619.08-7.1 619.08-10.5L619.08-10.5Q619.08-14 620.08-16.75 621.08-19.5 622.71-21.43 624.33-23.35 626.26-24.35 628.18-25.35 630.03-25.35L630.03-25.35Q632.08-25.35 633.68-24.08 635.28-22.8 635.88-20.1L635.88-20.1Q636.33-22.6 636.66-24.88 636.98-27.15 636.98-28.9L636.98-28.9Q636.98-31.2 636.38-32.25L636.38-32.25 636.38-32.55Q637.53-33.85 638.91-34.48 640.28-35.1 641.53-35.1L641.53-35.1Q643.18-35.1 644.33-34.08 645.48-33.05 645.48-31.15L645.48-31.15Q645.48-30.1 645.13-28.05 644.78-26 644.28-23.38 643.78-20.75 643.26-17.98 642.73-15.2 642.38-12.68 642.03-10.15 642.03-8.3L642.03-8.3Q642.03-6.75 642.36-5.83 642.68-4.9 643.43-4.9L643.43-4.9Q643.98-4.9 644.56-5.28 645.13-5.65 645.33-6.15L645.33-6.15 645.68-5.9Q645.68-4.25 644.63-2.88 643.58-1.5 641.98-0.65 640.38 0.2 638.68 0.2L638.68 0.2Q636.83 0.2 635.76-0.83 634.68-1.85 634.23-3.45 633.78-5.05 633.73-6.75L633.73-6.75Q632.18-3.15 630.11-1.48 628.03 0.2 625.98 0.2ZM629.33-6.15L629.33-6.15Q630.63-6.15 632.23-8.5 633.83-10.85 635.03-15.35L635.03-15.35 635.33-16.9Q634.53-18.75 633.61-19.53 632.68-20.3 631.83-20.3L631.83-20.3Q630.58-20.3 629.48-18.93 628.38-17.55 627.71-15.43 627.03-13.3 627.03-10.95L627.03-10.95Q627.03-8.7 627.68-7.43 628.33-6.15 629.33-6.15ZM658.68 0.35L658.68 0.35Q655.03 0.35 652.63-1.13 650.23-2.6 649.03-5.03 647.83-7.45 647.83-10.25L647.83-10.25Q647.83-12.9 648.85-15.58 649.88-18.25 651.85-20.45 653.83-22.65 656.65-24 659.48-25.35 663.03-25.35L663.03-25.35Q667.43-25.35 669.45-23.38 671.48-21.4 671.48-18.6L671.48-18.6Q671.48-16.2 670.2-14.18 668.93-12.15 666.83-10.93 664.73-9.7 662.23-9.7L662.23-9.7Q660.93-9.7 659.58-10.1 658.23-10.5 656.93-11.35L656.93-11.35Q657.18-8.25 658.73-6.85 660.28-5.45 662.43-5.45L662.43-5.45Q663.93-5.45 665.43-6.03 666.93-6.6 668.2-7.53 669.48-8.45 670.18-9.5L670.18-9.5 670.53-9.25Q670.53-6.65 669.45-4.83 668.38-3 666.63-1.85 664.88-0.7 662.8-0.18 660.73 0.35 658.68 0.35ZM659.83-13.15L659.83-13.15Q661.43-13.15 662.43-14.08 663.43-15 663.93-16.25 664.43-17.5 664.43-18.45L664.43-18.45Q664.43-19.6 663.78-20.38 663.13-21.15 661.98-21.15L661.98-21.15Q661.08-21.15 660-20.5 658.93-19.85 658.08-18.28 657.23-16.7 656.98-13.9L656.98-13.9Q658.58-13.15 659.83-13.15Z" opacity="1" transform="matrix(1,0,0,1,0,0)" fill="#1d597d" class="slogan-text-1" data-fill-palette-color="secondary" id="text-1"></path></svg></g></svg></g></svg></g></svg></g></svg></g></svg></g><defs></defs></svg><rect width="395.5199999999999" height="79.05312562801532" fill="none" stroke="none" visibility="hidden"></rect></g></svg></g></svg>