<svg xmlns="http://www.w3.org/2000/svg" version="1.1" xmlns:xlink="http://www.w3.org/1999/xlink" xmlns:svgjs="http://svgjs.dev/svgjs" width="2000" height="323" viewBox="0 0 2000 323"><g transform="matrix(1,0,0,1,-1.2121212121212466,0.2563494335019243)"><svg viewBox="0 0 396 64" data-background-color="#ffffff" preserveAspectRatio="xMidYMid meet" height="323" width="2000" xmlns="http://www.w3.org/2000/svg" xmlns:xlink="http://www.w3.org/1999/xlink"><g id="tight-bounds" transform="matrix(1,0,0,1,0.2400000000000091,-0.050793695802241245)"><svg viewBox="0 0 395.52 64.10158739160447" height="64.10158739160447" width="395.52"><g><svg viewBox="0 0 395.52 64.10158739160447" height="64.10158739160447" width="395.52"><g><svg viewBox="0 0 594.2584977744806 96.31096538302604" height="64.10158739160447" width="395.52"><g><svg viewBox="0 0 594.2584977744806 96.31096538302604" height="96.31096538302604" width="594.2584977744806"><g id="textblocktransform"><svg viewBox="0 0 594.2584977744806 96.31096538302604" height="96.31096538302604" width="594.2584977744806" id="textblock"><g><svg viewBox="0 0 594.2584977744806 63.50649999999999" height="63.50649999999999" width="594.2584977744806"><g><svg><g></g><g></g></svg></g><g><svg><g><svg></svg></g><g></g></svg></g><g id="text-0"><svg viewBox="0 0 594.2584977744806 63.50649999999999" height="63.50649999999999" width="594.2584977744806"><g transform="matrix(1,0,0,1,0,12.128249999999994)"><svg width="275.3" viewBox="3.25 -38.7 275.27 39.25" height="39.25" data-palette-color="#1d597d"><path d="M12.2-34.85L18.5-15.6 19-15.6 26.3-34.6 33.2-34.4 33.4-12.9 34.35 0 27.6 0 27.85-13 27.3-26.15 21.3-9.6 15.15-9.3 9.55-26.15 9.1-13 9.45 0 3.25 0 3.95-12.15 4.25-33.6 12.2-34.85ZM40.25-24.2L46.95-25.45 46.35-13 46.9-1.25 40.2 0 40.8-12.15 40.25-24.2ZM39.9-32.77Q39.9-34.45 41.2-35.77 42.5-37.1 44.2-37.1 45.9-37.1 46.8-36.18 47.7-35.25 47.7-33.4 47.7-31.55 46.42-30.23 45.15-28.9 43.47-28.9 41.8-28.9 40.85-30 39.9-31.1 39.9-32.77ZM60-4.65L60-4.65Q62.6-4.65 62.6-6.95L62.6-6.95Q62.6-7.75 61.47-8.45 60.35-9.15 58.72-9.85 57.1-10.55 55.47-11.43 53.85-12.3 52.72-13.85 51.6-15.4 51.6-17.4L51.6-17.4Q51.6-20.75 54.55-23.25 57.5-25.75 61.35-25.75L61.35-25.75Q63.15-25.75 64.87-25.33 66.6-24.9 68.2-24L68.2-24 64.85-17.9Q64.5-18.2 63.95-18.65 63.4-19.1 61.87-19.83 60.35-20.55 59.17-20.55 58-20.55 57.37-20.03 56.75-19.5 56.75-18.57 56.75-17.65 58.47-16.73 60.2-15.8 62.25-15.03 64.3-14.25 66.02-12.48 67.75-10.7 67.75-8.25L67.75-8.25Q67.75-4.75 64.87-2.1 62 0.55 58.25 0.55L58.25 0.55Q55.85 0.55 53.77-0.5 51.7-1.55 50.8-2.6L50.8-2.6 49.9-3.65 53.85-8.25Q54.15-7.85 54.7-7.25 55.25-6.65 56.87-5.65 58.5-4.65 60-4.65ZM85.39-25.25L85.39-25.25Q88.74-25.25 90.84-22.35 92.94-19.45 92.94-14.9L92.94-14.9Q92.94-8.35 89.52-4.17 86.09 0 80.64 0L80.64 0Q78.14 0 72.24-0.8L72.24-0.8 72.74-12.15 72.14-37.45 78.99-38.7 78.34-25.8 78.34-20.4Q78.89-21.2 79.69-22.1 80.49-23 82.19-24.13 83.89-25.25 85.39-25.25ZM83.44-18.75L83.44-18.75Q81.14-18.75 78.34-17.35L78.34-17.35 78.34-13 78.64-5.65Q80.74-5.4 82.59-5.4L82.59-5.4Q87.39-5.4 87.39-12.08 87.39-18.75 83.44-18.75ZM102.09 0Q99.14 0 97.27-1.88 95.39-3.75 95.39-6.93 95.39-10.1 98.29-12.43 101.19-14.75 105.34-14.75L105.34-14.75 108.74-14.75 108.74-15.6Q108.74-18.05 107.74-18.95 106.74-19.85 103.99-19.85L103.99-19.85Q102.84-19.85 101.27-19.38 99.69-18.9 97.74-17.9L97.74-17.9 96.29-21.85Q98.44-23.35 101.52-24.55 104.59-25.75 106.59-25.75L106.59-25.75Q114.44-25.75 114.44-18.15L114.44-18.15 114.44-8.35Q114.44-5.55 116.19-2.1L116.19-2.1 110.89 0.15Q109.64-2.25 109.04-4.15L109.04-4.15Q106.29 0 102.09 0L102.09 0ZM104.19-5.1L104.19-5.1Q106.19-5.1 108.74-7.15L108.74-7.15 108.74-10.5Q106.09-11.1 104.44-11.1L104.44-11.1Q101.29-11.1 101.29-8.3L101.29-8.3Q101.29-6.85 102.09-5.98 102.89-5.1 104.19-5.1ZM135.14-12.65Q135.14-16.1 134.54-17.25 133.94-18.4 131.74-18.4 129.54-18.4 126.74-16.65L126.74-16.65 126.74-13 127.29-1.25 120.54 0 121.14-12.15 120.54-37.45 127.39-38.7 126.74-25.75 126.74-19.9Q127.49-20.9 128.44-21.85 129.39-22.8 131.39-24 133.39-25.2 135.66-25.2 137.94-25.2 139.49-23.43 141.04-21.65 141.04-18.6L141.04-18.6 140.74-13 141.29-1 134.54 0.25 135.14-12.65ZM146.74-31.2L146.74-31.2 152.19-31.7Q151.09-25 149.04-19.5L149.04-19.5 146.19-19.65Q146.74-25.95 146.74-31.2ZM163.98-4.65L163.98-4.65Q166.58-4.65 166.58-6.95L166.58-6.95Q166.58-7.75 165.46-8.45 164.33-9.15 162.71-9.85 161.08-10.55 159.46-11.43 157.83-12.3 156.71-13.85 155.58-15.4 155.58-17.4L155.58-17.4Q155.58-20.75 158.53-23.25 161.48-25.75 165.33-25.75L165.33-25.75Q167.13-25.75 168.86-25.33 170.58-24.9 172.18-24L172.18-24 168.83-17.9Q168.48-18.2 167.93-18.65 167.38-19.1 165.86-19.83 164.33-20.55 163.16-20.55 161.98-20.55 161.36-20.03 160.73-19.5 160.73-18.57 160.73-17.65 162.46-16.73 164.18-15.8 166.23-15.03 168.28-14.25 170.01-12.48 171.73-10.7 171.73-8.25L171.73-8.25Q171.73-4.75 168.86-2.1 165.98 0.55 162.23 0.55L162.23 0.55Q159.83 0.55 157.76-0.5 155.68-1.55 154.78-2.6L154.78-2.6 153.88-3.65 157.83-8.25Q158.13-7.85 158.68-7.25 159.23-6.65 160.86-5.65 162.48-4.65 163.98-4.65ZM195.58 0.55L195.58 0.55Q190.03 0.55 186.23-4.1 182.43-8.75 182.43-15.5L182.43-15.5Q182.43-23.75 187-29.4 191.58-35.05 198.23-35.05L198.23-35.05Q200.83-35.05 203.05-34.52 205.28-34 206.23-33.45L206.23-33.45 207.13-32.9 203.73-25.95Q202.58-26.95 200.48-27.83 198.38-28.7 196.68-28.7L196.68-28.7Q193.23-28.7 191.15-25.85 189.08-23 189.08-17.73 189.08-12.45 191.23-9.08 193.38-5.7 197.08-5.7L197.08-5.7Q199.48-5.7 201.43-7.2 203.38-8.7 204.18-11.2L204.18-11.2 208.33-8.8Q206.68-4.4 203.28-1.93 199.88 0.55 195.58 0.55ZM209.88-10.45Q209.88-16.85 213.33-21.3 216.78-25.75 221.4-25.75 226.03-25.75 228.6-22.75 231.18-19.75 231.18-14.8L231.18-14.8Q231.18-8.2 227.85-3.83 224.53 0.55 219.48 0.55L219.48 0.55Q215.33 0.55 212.6-2.58 209.88-5.7 209.88-10.45L209.88-10.45ZM225.58-12.2L225.58-12.2Q225.58-19.45 220.63-19.45L220.63-19.45Q215.48-19.45 215.48-12.65L215.48-12.65Q215.48-9.1 216.93-7.1 218.38-5.1 220.75-5.1 223.13-5.1 224.35-6.93 225.58-8.75 225.58-12.2ZM248.67-4.9L248.67-4.9Q244.77 0 241.92 0L241.92 0Q238.37 0 236.1-2.9 233.82-5.8 233.82-10.35L233.82-10.35Q233.82-16.6 237.3-20.9 240.77-25.2 245.82-25.2L245.82-25.2 248.62-24.8 248.62-25.75 248.02-37.45 254.87-38.7 254.22-13 254.22-8.6Q254.22-5.6 255.72-1.7L255.72-1.7 250.32 0.55Q248.87-2.45 248.67-4.9ZM239.42-12.95Q239.42-9.75 240.6-7.95 241.77-6.15 244-6.15 246.22-6.15 248.62-7.95L248.62-7.95 248.62-18.75Q245.62-19.35 244.17-19.35L244.17-19.35Q241.92-19.35 240.67-17.75 239.42-16.15 239.42-12.95ZM269.57-5.1L269.57-5.1Q271.02-5.1 272.62-5.85 274.22-6.6 275.12-7.35L275.12-7.35 276.02-8.1 278.32-5.3Q277.82-4.45 276.77-3.35 275.72-2.25 274.65-1.48 273.57-0.7 271.8-0.08 270.02 0.55 268.12 0.55L268.12 0.55Q264.07 0.55 261.52-2.53 258.97-5.6 258.97-10.45L258.97-10.45Q258.97-16.55 262.52-21.15 266.07-25.75 270.82-25.75L270.82-25.75Q274.47-25.75 276.5-23.7 278.52-21.65 278.52-17.95L278.52-17.95Q278.52-15.75 277.77-12.95L277.77-12.95 276.77-11.9 264.27-10.75Q265.12-5.1 269.57-5.1ZM269.57-20.6L269.57-20.6Q267.37-20.6 265.87-18.82 264.37-17.05 264.12-14.3L264.12-14.3 272.62-15.35Q272.77-16.5 272.77-17.25L272.77-17.25Q272.77-20.6 269.57-20.6Z" opacity="1" transform="matrix(1,0,0,1,0,0)" fill="#1d597d" class="undefined-tk-0"></path></svg></g><g><svg xmlns="http://www.w3.org/2000/svg" xml:space="preserve" viewBox="0.7999999999999989 16.3 98.30000000000001 67.4" x="290.2935" y="0" height="63.50649999999999" width="92.6214977744807" class="icon-dxe-0" data-fill-palette-color="accent" id="dxe-0"><path d="M83.8 70.1c0 1-0.8 1.8-1.8 1.8H60.4c-0.6 1.7-2.2 3-4.1 3H43.6c-1.9 0-3.5-1.2-4.1-3H17.9c-1 0-1.8-0.8-1.8-1.8s0.8-1.8 1.8-1.8h23.2c1 0 1.8 0.8 1.8 1.8v0.4c0 0.4 0.3 0.8 0.8 0.8h12.7c0.4 0 0.8-0.3 0.8-0.8v-0.4c0-1 0.8-1.8 1.8-1.8h23.2c0.9 0 1.6 0.8 1.6 1.8m15.3 0v4.7c0 4.9-4 8.9-8.9 8.9H9.7c-4.9 0-8.9-4-8.9-8.9v-4.7c0-1 0.8-1.8 1.8-1.8h5.5V22.1c0-3.2 2.6-5.8 5.8-5.8h72c3.1 0 5.7 2.4 6 5.6v46.4h5.5c1 0 1.7 0.8 1.7 1.8m-3.5 1.7h-5.5c-1 0-1.8-0.8-1.8-1.8V22.2c-0.2-1.4-1.3-2.4-2.5-2.4h-72c-1.3 0-2.3 1-2.3 2.3V70c0 1-0.8 1.8-1.8 1.8H4.4v3c0 3 2.4 5.4 5.4 5.4h80.5c3 0 5.4-2.4 5.4-5.4v-3z m-70-28.5c0.3 0.4 0.8 0.6 1.3 0.6 0.4 0 0.8-0.1 1.1-0.4l8.2-7c0.4-0.3 0.6-0.8 0.6-1.3s-0.2-1-0.6-1.3l-8.2-7c-0.7-0.6-1.8-0.5-2.5 0.2-0.6 0.7-0.5 1.8 0.2 2.5l6.6 5.6-6.6 5.6c-0.6 0.7-0.7 1.8-0.1 2.5M42.8 37h30.3c1 0 1.8-0.8 1.8-1.8s-0.8-1.8-1.8-1.8H42.8c-1 0-1.8 0.8-1.8 1.8s0.8 1.8 1.8 1.8m30.3 7.2H35.2c-1 0-1.8 0.8-1.8 1.8s0.8 1.8 1.8 1.8h37.9c1 0 1.8-0.8 1.8-1.8s-0.9-1.8-1.8-1.8M26.9 58.5H73c1 0 1.8-0.8 1.8-1.8S74 55 73.1 55H26.9c-1 0-1.8 0.8-1.8 1.8s0.9 1.7 1.8 1.7" fill="#83b6b9" data-fill-palette-color="accent"></path></svg></g><g transform="matrix(1,0,0,1,397.9084977744807,12.128249999999994)"><svg width="196.35" viewBox="4 -38.7 196.33 39.25" height="39.25" data-palette-color="#1d597d"><path d="M4-34.5L14.85-34.5Q19.65-34.5 22.45-32.33 25.25-30.15 25.25-26.5L25.25-26.5Q25.25-20.65 20.45-18.35L20.45-18.35Q26.95-16.1 26.95-10.05L26.95-10.05Q26.95-5.5 23.05-2.48 19.15 0.55 13.25 0.55L13.25 0.55Q10.15 0.55 4 0L4 0 4.6-12.15 4-34.5ZM14.2-14.85L14.2-14.85 10.15-14.85 10.1-13 10.45-4.85Q13.35-4.6 14.9-4.6L14.9-4.6Q17.55-4.6 19.03-5.93 20.5-7.25 20.5-9.8 20.5-12.35 19-13.6 17.5-14.85 14.2-14.85ZM13.05-29.45L13.05-29.45 10.6-29.45 10.3-19.7 13.55-19.7Q16.1-19.7 17.45-21.08 18.8-22.45 18.8-25L18.8-25Q18.8-29.45 13.05-29.45ZM31.35-24.15L31.35-24.15 37.4-25.45Q37.85-21.6 38-18.15L38-18.15Q42.55-25.2 46.55-25.2L46.55-25.2 46-17.4Q43.1-17.4 41.42-16.88 39.75-16.35 38-14.8L38-14.8 38-13 38.55-1.25 31.85 0 32.45-12.15Q32.25-18.85 31.35-24.15ZM58.7-5.1L58.7-5.1Q60.15-5.1 61.75-5.85 63.34-6.6 64.25-7.35L64.25-7.35 65.15-8.1 67.45-5.3Q66.95-4.45 65.9-3.35 64.84-2.25 63.77-1.48 62.7-0.7 60.92-0.08 59.15 0.55 57.25 0.55L57.25 0.55Q53.2 0.55 50.65-2.53 48.09-5.6 48.09-10.45L48.09-10.45Q48.09-16.55 51.65-21.15 55.2-25.75 59.95-25.75L59.95-25.75Q63.59-25.75 65.62-23.7 67.65-21.65 67.65-17.95L67.65-17.95Q67.65-15.75 66.9-12.95L66.9-12.95 65.9-11.9 53.4-10.75Q54.25-5.1 58.7-5.1ZM58.7-20.6L58.7-20.6Q56.5-20.6 55-18.82 53.5-17.05 53.25-14.3L53.25-14.3 61.75-15.35Q61.9-16.5 61.9-17.25L61.9-17.25Q61.9-20.6 58.7-20.6ZM92.54-14.4L94.29-6.25 94.94-6.25 96.54-13.1 99.14-25.45 105.24-24.7 101.59-12.3 98.54-0.6 90.34 0.15 87.59-12 87.34-12.8 83.99-0.6 76.04 0.15 73.14-12 69.69-24.15 76.24-25.4 78.29-14.4 80.09-6.25 80.74-6.25 85.04-20.5 83.99-24.15 90.44-25.4 92.54-14.4ZM127.99 0.55L127.99 0.55Q122.44 0.55 118.64-4.1 114.84-8.75 114.84-15.5L114.84-15.5Q114.84-23.75 119.41-29.4 123.99-35.05 130.64-35.05L130.64-35.05Q133.24-35.05 135.46-34.52 137.69-34 138.64-33.45L138.64-33.45 139.54-32.9 136.14-25.95Q134.99-26.95 132.89-27.83 130.79-28.7 129.09-28.7L129.09-28.7Q125.64-28.7 123.56-25.85 121.49-23 121.49-17.73 121.49-12.45 123.64-9.08 125.79-5.7 129.49-5.7L129.49-5.7Q131.89-5.7 133.84-7.2 135.79-8.7 136.59-11.2L136.59-11.2 140.74-8.8Q139.09-4.4 135.69-1.93 132.29 0.55 127.99 0.55ZM148.79 0Q145.84 0 143.96-1.88 142.09-3.75 142.09-6.93 142.09-10.1 144.99-12.43 147.89-14.75 152.04-14.75L152.04-14.75 155.44-14.75 155.44-15.6Q155.44-18.05 154.44-18.95 153.44-19.85 150.69-19.85L150.69-19.85Q149.54-19.85 147.96-19.38 146.39-18.9 144.44-17.9L144.44-17.9 142.99-21.85Q145.14-23.35 148.21-24.55 151.29-25.75 153.29-25.75L153.29-25.75Q161.14-25.75 161.14-18.15L161.14-18.15 161.14-8.35Q161.14-5.55 162.89-2.1L162.89-2.1 157.59 0.15Q156.34-2.25 155.74-4.15L155.74-4.15Q152.99 0 148.79 0L148.79 0ZM150.89-5.1L150.89-5.1Q152.89-5.1 155.44-7.15L155.44-7.15 155.44-10.5Q152.79-11.1 151.14-11.1L151.14-11.1Q147.99-11.1 147.99-8.3L147.99-8.3Q147.99-6.85 148.79-5.98 149.59-5.1 150.89-5.1ZM182.13-38.25L180.58-32.55Q178.73-33 177.23-33 175.73-33 175.06-32.1 174.38-31.2 174.38-28.95L174.38-28.95 174.33-24.2 179.73-24.2 179.18-20.1 174.33-20.1 174.28-13 174.83-1.25 168.08 0 168.68-12.15 168.48-20.1 165.18-20.1 165.73-24.2 168.38-24.2 168.33-28Q168.33-32.45 171.08-35.58 173.83-38.7 177.78-38.7L177.78-38.7Q179.88-38.7 182.13-38.25L182.13-38.25ZM191.38-5.1L191.38-5.1Q192.83-5.1 194.43-5.85 196.03-6.6 196.93-7.35L196.93-7.35 197.83-8.1 200.13-5.3Q199.63-4.45 198.58-3.35 197.53-2.25 196.46-1.48 195.38-0.7 193.61-0.08 191.83 0.55 189.93 0.55L189.93 0.55Q185.88 0.55 183.33-2.53 180.78-5.6 180.78-10.45L180.78-10.45Q180.78-16.55 184.33-21.15 187.88-25.75 192.63-25.75L192.63-25.75Q196.28-25.75 198.31-23.7 200.33-21.65 200.33-17.95L200.33-17.95Q200.33-15.75 199.58-12.95L199.58-12.95 198.58-11.9 186.08-10.75Q186.93-5.1 191.38-5.1ZM191.38-20.6L191.38-20.6Q189.18-20.6 187.68-18.82 186.18-17.05 185.93-14.3L185.93-14.3 194.43-15.35Q194.58-16.5 194.58-17.25L194.58-17.25Q194.58-20.6 191.38-20.6Z" opacity="1" transform="matrix(1,0,0,1,0,0)" fill="#1d597d" class="undefined-tk-1"></path></svg></g></svg></g></svg></g><g transform="matrix(1,0,0,1,113.5033730749258,72.772483)"><svg viewBox="0 0 367.251751624629 23.538482383026054" height="23.538482383026054" width="367.251751624629"><g transform="matrix(1,0,0,1,0,0)"><svg width="367.251751624629" viewBox="1.9383335333419998 -36.95 734.7816664666581 47.1" height="23.538482383026054" data-palette-color="#1d597d"><path d="M13.85 0.3L13.85 0.3Q10.7 0.3 8.43-0.98 6.15-2.25 4.67-4.48 3.2-6.7 2.53-9.53 1.85-12.35 1.95-15.4L1.95-15.4Q2.15-20.85 3.95-24.8 5.75-28.75 8.5-31.3 11.25-33.85 14.43-35.08 17.6-36.3 20.55-36.3L20.55-36.3Q23.05-36.3 25.08-35.48 27.1-34.65 28.3-33.08 29.5-31.5 29.5-29.25L29.5-29.25Q29.5-27.5 28.48-25.88 27.45-24.25 25.38-23.23 23.3-22.2 20.05-22.2L20.05-22.2Q20.6-23.8 20.85-25 21.1-26.2 21.1-27.05L21.1-27.05Q21.1-28.8 20.3-29.43 19.5-30.05 18.3-30.05L18.3-30.05Q16.85-30.05 15.55-29 14.25-27.95 13.23-26.18 12.2-24.4 11.6-22.25 11-20.1 10.9-17.9L10.9-17.9Q10.7-12.35 12.5-9.5 14.3-6.65 17.15-6.65L17.15-6.65Q19.35-6.65 22.03-8.45 24.7-10.25 27.3-13.9L27.3-13.9 27.95-13.6Q27.3-9.1 25.1-6 22.9-2.9 19.93-1.3 16.95 0.3 13.85 0.3ZM42.35 0.35L42.35 0.35Q38.6 0.35 36.15-1.15 33.7-2.65 32.52-5.13 31.35-7.6 31.35-10.4L31.35-10.4Q31.35-13.05 32.32-15.7 33.3-18.35 35.17-20.53 37.05-22.7 39.75-24.03 42.45-25.35 45.95-25.35L45.95-25.35Q49.7-25.35 52.12-23.83 54.55-22.3 55.72-19.8 56.9-17.3 56.9-14.45L56.9-14.45Q56.9-11.85 55.95-9.22 55-6.6 53.12-4.42 51.25-2.25 48.55-0.95 45.85 0.35 42.35 0.35ZM43.7-3.9L43.7-3.9Q45.05-3.9 45.95-5.3 46.85-6.7 47.3-8.88 47.75-11.05 47.75-13.3L47.75-13.3Q47.75-15.3 47.37-17.07 47-18.85 46.25-19.98 45.5-21.1 44.3-21.1L44.3-21.1Q43-21.1 42.07-19.7 41.15-18.3 40.7-16.15 40.25-14 40.25-11.7L40.25-11.7Q40.25-9.7 40.62-7.93 41-6.15 41.75-5.03 42.5-3.9 43.7-3.9ZM66.95 0.2L66.95 0.2Q65.14 0.2 63.57-1.05 62-2.3 61.02-4.7 60.05-7.1 60.05-10.5L60.05-10.5Q60.05-14 61.05-16.75 62.05-19.5 63.67-21.43 65.3-23.35 67.22-24.35 69.15-25.35 71-25.35L71-25.35Q73.05-25.35 74.65-24.08 76.25-22.8 76.84-20.1L76.84-20.1Q77.3-22.6 77.62-24.88 77.95-27.15 77.95-28.9L77.95-28.9Q77.95-31.2 77.34-32.25L77.34-32.25 77.34-32.55Q78.5-33.85 79.87-34.48 81.25-35.1 82.5-35.1L82.5-35.1Q84.15-35.1 85.3-34.08 86.45-33.05 86.45-31.15L86.45-31.15Q86.45-30.1 86.09-28.05 85.75-26 85.25-23.38 84.75-20.75 84.22-17.98 83.7-15.2 83.34-12.68 83-10.15 83-8.3L83-8.3Q83-6.75 83.32-5.83 83.65-4.9 84.4-4.9L84.4-4.9Q84.95-4.9 85.52-5.28 86.09-5.65 86.3-6.15L86.3-6.15 86.65-5.9Q86.65-4.25 85.59-2.88 84.55-1.5 82.95-0.65 81.34 0.2 79.65 0.2L79.65 0.2Q77.8 0.2 76.72-0.83 75.65-1.85 75.2-3.45 74.75-5.05 74.7-6.75L74.7-6.75Q73.15-3.15 71.07-1.48 69 0.2 66.95 0.2ZM70.3-6.15L70.3-6.15Q71.59-6.15 73.2-8.5 74.8-10.85 76-15.35L76-15.35 76.3-16.9Q75.5-18.75 74.57-19.53 73.65-20.3 72.8-20.3L72.8-20.3Q71.55-20.3 70.45-18.93 69.34-17.55 68.67-15.43 68-13.3 68-10.95L68-10.95Q68-8.7 68.65-7.43 69.3-6.15 70.3-6.15ZM99.64 0.35L99.64 0.35Q95.99 0.35 93.59-1.13 91.19-2.6 89.99-5.03 88.79-7.45 88.79-10.25L88.79-10.25Q88.79-12.9 89.82-15.58 90.84-18.25 92.82-20.45 94.79-22.65 97.62-24 100.44-25.35 103.99-25.35L103.99-25.35Q108.39-25.35 110.42-23.38 112.44-21.4 112.44-18.6L112.44-18.6Q112.44-16.2 111.17-14.18 109.89-12.15 107.79-10.93 105.69-9.7 103.19-9.7L103.19-9.7Q101.89-9.7 100.54-10.1 99.19-10.5 97.89-11.35L97.89-11.35Q98.14-8.25 99.69-6.85 101.24-5.45 103.39-5.45L103.39-5.45Q104.89-5.45 106.39-6.03 107.89-6.6 109.17-7.53 110.44-8.45 111.14-9.5L111.14-9.5 111.49-9.25Q111.49-6.65 110.42-4.83 109.34-3 107.59-1.85 105.84-0.7 103.77-0.18 101.69 0.35 99.64 0.35ZM100.79-13.15L100.79-13.15Q102.39-13.15 103.39-14.08 104.39-15 104.89-16.25 105.39-17.5 105.39-18.45L105.39-18.45Q105.39-19.6 104.74-20.38 104.09-21.15 102.94-21.15L102.94-21.15Q102.04-21.15 100.97-20.5 99.89-19.85 99.04-18.28 98.19-16.7 97.94-13.9L97.94-13.9Q99.54-13.15 100.79-13.15ZM130.99 0.2L130.99 0.2Q128.39 0.2 126.76-1.33 125.14-2.85 125.14-6.05L125.14-6.05Q125.14-7.65 125.51-9.43 125.89-11.2 126.36-12.93 126.84-14.65 127.19-16.05 127.54-17.45 127.54-18.3L127.54-18.3Q127.54-19.15 127.19-19.53 126.84-19.9 126.34-19.9L126.34-19.9Q125.84-19.9 125.34-19.58 124.84-19.25 124.49-18.6L124.49-18.6 124.09-18.75Q124.19-20.8 125.24-22.25 126.29-23.7 127.86-24.45 129.44-25.2 131.04-25.2L131.04-25.2Q132.34-25.2 133.54-24.68 134.74-24.15 135.46-23.08 136.19-22 136.14-20.35L136.14-20.35Q136.09-19.25 135.74-17.65 135.39-16.05 134.91-14.23 134.44-12.4 134.09-10.7 133.74-9 133.74-7.7L133.74-7.7Q133.74-6.6 134.06-5.95 134.39-5.3 135.19-5.3L135.19-5.3Q136.04-5.3 137.44-6.2 138.84-7.1 140.24-8.8L140.24-8.8Q139.94-11.6 139.94-13.75L139.94-13.75Q139.94-19.25 141.56-21.7 143.19-24.15 145.64-24.15L145.64-24.15Q147.44-24.15 148.09-22.95 148.74-21.75 148.74-19.75L148.74-19.75Q148.74-16.8 147.74-14.2 146.74-11.6 145.39-10.05L145.39-10.05Q145.49-7.8 146.31-6.55 147.14-5.3 148.29-5.3L148.29-5.3Q149.44-5.3 150.66-6.6 151.89-7.9 152.79-10.6 153.69-13.3 153.84-17.45L153.84-17.45Q153.89-20.8 153.39-22.35L153.39-22.35 153.39-22.6Q154.09-23.75 155.61-24.58 157.14-25.4 158.69-25.4L158.69-25.4Q159.79-25.4 160.71-24.78 161.64-24.15 162.19-22.48 162.74-20.8 162.59-17.65L162.59-17.65Q162.44-13.25 161.14-9.93 159.84-6.6 157.81-4.35 155.79-2.1 153.44-0.95 151.09 0.2 148.79 0.2L148.79 0.2Q146.19 0.2 144.04-1.23 141.89-2.65 140.79-5.25L140.79-5.25Q138.54-2.9 136.16-1.35 133.79 0.2 130.99 0.2ZM174.29-26.75L174.29-26.75Q172.29-26.75 171.01-27.98 169.74-29.2 169.74-31.05L169.74-31.05Q169.74-33.05 171.24-34.5 172.74-35.95 174.89-35.95L174.89-35.95Q176.89-35.95 178.16-34.7 179.44-33.45 179.44-31.6L179.44-31.6Q179.44-29.6 177.94-28.18 176.44-26.75 174.29-26.75ZM170.79 0.2L170.79 0.2Q168.84 0.2 167.29-1.18 165.74-2.55 165.74-5.6L165.74-5.6Q165.74-7.35 166.21-8.88 166.69-10.4 167.31-11.85 167.94-13.3 168.41-14.68 168.89-16.05 168.89-17.4L168.89-17.4Q168.89-18.6 168.49-19.13 168.09-19.65 167.54-19.65L167.54-19.65Q166.69-19.65 165.89-18.55L165.89-18.55 165.54-18.75Q165.74-20.75 166.81-22.18 167.89-23.6 169.46-24.4 171.04-25.2 172.59-25.2L172.59-25.2Q174.49-25.2 175.89-23.98 177.29-22.75 177.29-20L177.29-20Q177.29-18.35 176.81-16.53 176.34-14.7 175.71-12.9 175.09-11.1 174.61-9.55 174.14-8 174.14-6.9L174.14-6.9Q174.14-5.95 174.51-5.55 174.89-5.15 175.34-5.15L175.34-5.15Q175.79-5.15 176.21-5.43 176.64-5.7 176.84-6.05L176.84-6.05 177.19-5.95Q177.19-4.1 176.21-2.73 175.24-1.35 173.79-0.58 172.34 0.2 170.79 0.2ZM188.23 0.2L188.23 0.2Q186.63 0.2 185.21-0.53 183.78-1.25 182.91-2.8 182.03-4.35 182.03-6.75L182.03-6.75Q182.03-8.05 182.28-10.15 182.53-12.25 182.96-14.75 183.38-17.25 183.83-19.75L183.83-19.75Q182.83-19.7 181.91-19.55 180.98-19.4 180.08-19.2L180.08-19.2 179.98-19.55Q180.98-20.75 182.08-21.6 183.18-22.45 184.38-23L184.38-23Q185.03-26.3 185.48-28.73 185.93-31.15 185.93-31.6L185.93-31.6Q185.93-32.45 187.26-33 188.58-33.55 190.23-33.55L190.23-33.55Q191.68-33.55 192.96-33 194.23-32.45 194.68-31.15L194.68-31.15Q194.38-30.85 193.83-28.93 193.28-27 192.68-24.25L192.68-24.25Q193.63-24.2 194.63-24.15 195.63-24.1 196.68-24L196.68-24Q196.78-23.7 196.83-23.35 196.88-23 196.88-22.6L196.88-22.6Q196.88-21.85 196.66-20.98 196.43-20.1 196.13-19.4L196.13-19.4Q194.93-19.5 193.88-19.63 192.83-19.75 191.83-19.8L191.83-19.8Q191.43-17.65 191.11-15.5 190.78-13.35 190.61-11.6 190.43-9.85 190.43-8.85L190.43-8.85Q190.43-6.75 191.21-6.05 191.98-5.35 193.08-5.35L193.08-5.35Q194.08-5.35 194.88-5.75 195.68-6.15 196.03-6.7L196.03-6.7 196.53-6.55Q196.23-4.5 194.93-2.98 193.63-1.45 191.83-0.63 190.03 0.2 188.23 0.2ZM203.78 0.2L203.78 0.2Q201.63 0.2 200.33-1.25 199.03-2.7 199.03-5.2L199.03-5.2Q199.03-6.55 199.38-8.72 199.73-10.9 200.26-13.53 200.78-16.15 201.28-18.88 201.78-21.6 202.13-24.15 202.48-26.7 202.48-28.65L202.48-28.65Q202.48-31.1 201.83-32.2L201.83-32.2 201.83-32.5Q202.93-33.75 204.23-34.35 205.53-34.95 206.78-34.95L206.78-34.95Q208.68-34.95 210.03-33.6 211.38-32.25 211.38-29.55L211.38-29.55Q211.38-28.1 210.98-26 210.58-23.9 210.03-21.6 209.48-19.3 208.93-17.3L208.93-17.3Q209.88-19.15 211.46-20.98 213.03-22.8 215.06-24 217.08-25.2 219.28-25.2L219.28-25.2Q221.78-25.2 222.66-23.65 223.53-22.1 223.53-19.8L223.53-19.8Q223.53-17.7 223.08-15.33 222.63-12.95 222.18-10.78 221.73-8.6 221.73-7.15L221.73-7.15Q221.73-5.05 222.98-5.05L222.98-5.05Q223.53-5.05 223.96-5.38 224.38-5.7 224.58-6.1L224.58-6.1 224.93-5.85Q224.93-3.9 223.98-2.55 223.03-1.2 221.56-0.5 220.08 0.2 218.53 0.2L218.53 0.2Q216.48 0.2 214.83-1.18 213.18-2.55 213.18-5.65L213.18-5.65Q213.18-7.4 213.66-9.45 214.13-11.5 214.58-13.43 215.03-15.35 215.03-16.65L215.03-16.65Q215.03-18.35 213.83-18.35L213.83-18.35Q212.73-18.35 211.43-17.25 210.13-16.15 209.16-14.5 208.18-12.85 207.88-11.25L207.88-11.25Q207.78-10.85 207.78-10.3L207.78-10.3Q207.78-9.05 208.16-7.9 208.53-6.75 208.53-5.2L208.53-5.2Q208.53-2.9 207.33-1.35 206.13 0.2 203.78 0.2ZM248.93 0.3L248.93 0.3Q245.78 0.3 243.5-0.98 241.23-2.25 239.75-4.48 238.28-6.7 237.6-9.53 236.93-12.35 237.03-15.4L237.03-15.4Q237.23-20.85 239.03-24.8 240.83-28.75 243.58-31.3 246.33-33.85 249.5-35.08 252.68-36.3 255.63-36.3L255.63-36.3Q258.13-36.3 260.15-35.48 262.18-34.65 263.38-33.08 264.58-31.5 264.58-29.25L264.58-29.25Q264.58-27.5 263.55-25.88 262.53-24.25 260.45-23.23 258.38-22.2 255.13-22.2L255.13-22.2Q255.68-23.8 255.93-25 256.18-26.2 256.18-27.05L256.18-27.05Q256.18-28.8 255.38-29.43 254.58-30.05 253.38-30.05L253.38-30.05Q251.93-30.05 250.63-29 249.33-27.95 248.3-26.18 247.28-24.4 246.68-22.25 246.08-20.1 245.98-17.9L245.98-17.9Q245.78-12.35 247.58-9.5 249.38-6.65 252.23-6.65L252.23-6.65Q254.43-6.65 257.1-8.45 259.78-10.25 262.38-13.9L262.38-13.9 263.03-13.6Q262.38-9.1 260.18-6 257.98-2.9 255-1.3 252.03 0.3 248.93 0.3ZM277.42 0.35L277.42 0.35Q273.67 0.35 271.22-1.15 268.77-2.65 267.6-5.13 266.42-7.6 266.42-10.4L266.42-10.4Q266.42-13.05 267.4-15.7 268.37-18.35 270.25-20.53 272.12-22.7 274.82-24.03 277.52-25.35 281.02-25.35L281.02-25.35Q284.77-25.35 287.2-23.83 289.62-22.3 290.8-19.8 291.97-17.3 291.97-14.45L291.97-14.45Q291.97-11.85 291.02-9.22 290.07-6.6 288.2-4.42 286.32-2.25 283.62-0.95 280.92 0.35 277.42 0.35ZM278.77-3.9L278.77-3.9Q280.12-3.9 281.02-5.3 281.92-6.7 282.37-8.88 282.82-11.05 282.82-13.3L282.82-13.3Q282.82-15.3 282.45-17.07 282.07-18.85 281.32-19.98 280.57-21.1 279.37-21.1L279.37-21.1Q278.07-21.1 277.15-19.7 276.22-18.3 275.77-16.15 275.32-14 275.32-11.7L275.32-11.7Q275.32-9.7 275.7-7.93 276.07-6.15 276.82-5.03 277.57-3.9 278.77-3.9ZM300.12 10.15L300.12 10.15Q298.67 10.15 297.37 9.63 296.07 9.1 295.57 8.05L295.57 8.05Q296.77 2.95 297.55-1 298.32-4.95 298.77-8.05 299.22-11.15 299.42-13.73 299.62-16.3 299.67-18.7L299.67-18.7Q297.97-18.6 296.42-18.38 294.87-18.15 293.72-17.75L293.72-17.75 293.62-18.1Q295.07-19.55 296.62-20.53 298.17-21.5 299.72-22.1L299.72-22.1 299.72-25.9Q299.72-29.75 301.27-32.18 302.82-34.6 305.25-35.77 307.67-36.95 310.27-36.95L310.27-36.95Q313.72-36.95 315.45-35.3 317.17-33.65 317.17-31.6L317.17-31.6Q317.17-30.1 316.25-28.7 315.32-27.3 313.47-26.38 311.62-25.45 308.82-25.45L308.82-25.45Q309.62-26.9 310.05-28.35 310.47-29.8 310.47-30.9L310.47-30.9Q310.47-31.75 310.22-32.27 309.97-32.8 309.52-32.8L309.52-32.8Q308.57-32.8 307.7-30.43 306.82-28.05 306.82-24.2L306.82-24.2 306.82-23.25Q308.27-23.3 309.6-23.2 310.92-23.1 312.07-23L312.07-23Q312.17-22.65 312.22-22.25 312.27-21.85 312.27-21.45L312.27-21.45Q312.27-20.7 312.07-19.95 311.87-19.2 311.52-18.4L311.52-18.4Q310.62-18.5 309.47-18.6 308.32-18.7 307.02-18.75L307.02-18.75 307.02-17.65Q307.02-14.9 306.8-11.3 306.57-7.7 305.97-2.75 305.37 2.2 304.12 9.05L304.12 9.05Q302.57 10.15 300.12 10.15ZM320.02 10.15L320.02 10.15Q318.57 10.15 317.27 9.63 315.97 9.1 315.47 8.05L315.47 8.05Q316.67 2.95 317.44-1 318.22-4.95 318.67-8.05 319.12-11.15 319.32-13.73 319.52-16.3 319.57-18.7L319.57-18.7Q317.87-18.6 316.32-18.38 314.77-18.15 313.62-17.75L313.62-17.75 313.52-18.1Q314.97-19.55 316.52-20.53 318.07-21.5 319.62-22.1L319.62-22.1 319.62-25.9Q319.62-29.75 321.17-32.18 322.72-34.6 325.14-35.77 327.57-36.95 330.17-36.95L330.17-36.95Q333.62-36.95 335.34-35.3 337.07-33.65 337.07-31.6L337.07-31.6Q337.07-30.1 336.14-28.7 335.22-27.3 333.37-26.38 331.52-25.45 328.72-25.45L328.72-25.45Q329.52-26.9 329.94-28.35 330.37-29.8 330.37-30.9L330.37-30.9Q330.37-31.75 330.12-32.27 329.87-32.8 329.42-32.8L329.42-32.8Q328.47-32.8 327.59-30.43 326.72-28.05 326.72-24.2L326.72-24.2 326.72-23.25Q328.17-23.3 329.49-23.2 330.82-23.1 331.97-23L331.97-23Q332.07-22.65 332.12-22.25 332.17-21.85 332.17-21.45L332.17-21.45Q332.17-20.7 331.97-19.95 331.77-19.2 331.42-18.4L331.42-18.4Q330.52-18.5 329.37-18.6 328.22-18.7 326.92-18.75L326.92-18.75 326.92-17.65Q326.92-14.9 326.69-11.3 326.47-7.7 325.87-2.75 325.27 2.2 324.02 9.05L324.02 9.05Q322.47 10.15 320.02 10.15ZM345.42 0.35L345.42 0.35Q341.77 0.35 339.37-1.13 336.97-2.6 335.77-5.03 334.56-7.45 334.56-10.25L334.56-10.25Q334.56-12.9 335.59-15.58 336.62-18.25 338.59-20.45 340.56-22.65 343.39-24 346.22-25.35 349.77-25.35L349.77-25.35Q354.17-25.35 356.19-23.38 358.22-21.4 358.22-18.6L358.22-18.6Q358.22-16.2 356.94-14.18 355.67-12.15 353.56-10.93 351.47-9.7 348.97-9.7L348.97-9.7Q347.67-9.7 346.31-10.1 344.97-10.5 343.67-11.35L343.67-11.35Q343.92-8.25 345.47-6.85 347.02-5.45 349.17-5.45L349.17-5.45Q350.67-5.45 352.17-6.03 353.67-6.6 354.94-7.53 356.22-8.45 356.92-9.5L356.92-9.5 357.27-9.25Q357.27-6.65 356.19-4.83 355.12-3 353.37-1.85 351.62-0.7 349.54-0.18 347.47 0.35 345.42 0.35ZM346.56-13.15L346.56-13.15Q348.17-13.15 349.17-14.08 350.17-15 350.67-16.25 351.17-17.5 351.17-18.45L351.17-18.45Q351.17-19.6 350.52-20.38 349.87-21.15 348.72-21.15L348.72-21.15Q347.81-21.15 346.74-20.5 345.67-19.85 344.81-18.28 343.97-16.7 343.72-13.9L343.72-13.9Q345.31-13.15 346.56-13.15ZM371.46 0.35L371.46 0.35Q367.81 0.35 365.41-1.13 363.01-2.6 361.81-5.03 360.61-7.45 360.61-10.25L360.61-10.25Q360.61-12.9 361.64-15.58 362.66-18.25 364.64-20.45 366.61-22.65 369.44-24 372.26-25.35 375.81-25.35L375.81-25.35Q380.21-25.35 382.24-23.38 384.26-21.4 384.26-18.6L384.26-18.6Q384.26-16.2 382.99-14.18 381.71-12.15 379.61-10.93 377.51-9.7 375.01-9.7L375.01-9.7Q373.71-9.7 372.36-10.1 371.01-10.5 369.71-11.35L369.71-11.35Q369.96-8.25 371.51-6.85 373.06-5.45 375.21-5.45L375.21-5.45Q376.71-5.45 378.21-6.03 379.71-6.6 380.99-7.53 382.26-8.45 382.96-9.5L382.96-9.5 383.31-9.25Q383.31-6.65 382.24-4.83 381.16-3 379.41-1.85 377.66-0.7 375.59-0.18 373.51 0.35 371.46 0.35ZM372.61-13.15L372.61-13.15Q374.21-13.15 375.21-14.08 376.21-15 376.71-16.25 377.21-17.5 377.21-18.45L377.21-18.45Q377.21-19.6 376.56-20.38 375.91-21.15 374.76-21.15L374.76-21.15Q373.86-21.15 372.79-20.5 371.71-19.85 370.86-18.28 370.01-16.7 369.76-13.9L369.76-13.9Q371.36-13.15 372.61-13.15ZM392.51-15.35L392.51-15.35Q390.46-15.35 389.11-16.65 387.76-17.95 387.76-19.85L387.76-19.85Q387.76-22 389.34-23.53 390.91-25.05 393.21-25.05L393.21-25.05Q395.26-25.05 396.64-23.75 398.01-22.45 398.01-20.55L398.01-20.55Q398.01-18.4 396.41-16.88 394.81-15.35 392.51-15.35ZM391.06 0.3L391.06 0.3Q389.01 0.3 387.66-1 386.31-2.3 386.31-4.2L386.31-4.2Q386.31-6.35 387.89-7.88 389.46-9.4 391.76-9.4L391.76-9.4Q393.81-9.4 395.19-8.1 396.56-6.8 396.56-4.9L396.56-4.9Q396.56-2.75 394.96-1.23 393.36 0.3 391.06 0.3ZM421.66 0.35L421.66 0.35Q417.11 0.35 414.21-1.35 411.31-3.05 411.31-6.9L411.31-6.9Q411.31-7.3 411.33-7.63 411.36-7.95 411.41-8.15L411.41-8.15Q411.61-9.55 412.26-11.6 412.91-13.65 413.76-15.98 414.61-18.3 415.41-20.55 416.21-22.8 416.76-24.68 417.31-26.55 417.31-27.7L417.31-27.7Q417.31-29 416.46-29L416.46-29Q415.51-29 414.11-27.58 412.71-26.15 411.16-23.6L411.16-23.6 410.86-23.75Q410.86-27.05 412.16-29.45 413.46-31.85 415.61-33.43 417.76-35 420.41-35.75 423.06-36.5 425.76-36.5L425.76-36.5Q429.11-36.5 432.06-35.43 435.01-34.35 436.88-32.35 438.76-30.35 438.76-27.45L438.76-27.45Q438.76-22.25 432.41-19.35L432.41-19.35Q436.16-18.5 437.91-16.5 439.66-14.5 439.66-12.05L439.66-12.05Q439.66-9.9 438.38-7.73 437.11-5.55 434.76-3.73 432.41-1.9 429.08-0.78 425.76 0.35 421.66 0.35ZM423.61-20.85L423.61-20.85Q425.91-20.8 427.63-21.58 429.36-22.35 430.33-23.58 431.31-24.8 431.31-26.1L431.31-26.1Q431.31-27.8 429.51-29.13 427.71-30.45 423.86-30.45L423.86-30.45Q424.06-29.5 424.13-28.55 424.21-27.6 424.21-26.7L424.21-26.7Q424.21-25.25 424.03-23.8 423.86-22.35 423.61-20.85ZM423.06-5.75L423.06-5.75Q425.21-5.75 426.86-6.63 428.51-7.5 429.46-8.88 430.41-10.25 430.41-11.7L430.41-11.7Q430.41-13.7 428.51-15.4 426.61-17.1 422.56-17.5L422.56-17.5Q422.36-15.95 421.73-14.2 421.11-12.45 420.56-10.85 420.01-9.25 420.01-8.05L420.01-8.05Q420.01-7 420.66-6.38 421.31-5.75 423.06-5.75ZM448.55 0.2L448.55 0.2Q446.75 0.2 445.35-1.28 443.95-2.75 443.95-5.45L443.95-5.45Q443.95-6.75 444.25-8.4 444.55-10.05 444.95-11.78 445.35-13.5 445.65-15.03 445.95-16.55 445.95-17.55L445.95-17.55Q445.95-18.6 445.58-19.23 445.2-19.85 444.6-19.85L444.6-19.85Q443.65-19.85 442.65-18.55L442.65-18.55 442.35-18.75Q442.3-19.55 442.7-20.65 443.1-21.75 443.95-22.78 444.8-23.8 446.13-24.5 447.45-25.2 449.25-25.2L449.25-25.2Q451.9-25.2 453.1-23.68 454.3-22.15 454.3-20L454.3-20Q454.3-19.65 454.28-19.28 454.25-18.9 454.2-18.55L454.2-18.55Q456-21.8 457.98-23.53 459.95-25.25 461.65-25.25L461.65-25.25Q463.25-25.25 464-24 464.75-22.75 464.75-21L464.75-21Q464.75-19.4 464.13-17.75 463.5-16.1 462.28-15.03 461.05-13.95 459.3-14L459.3-14 459.1-14.1Q459.05-15.4 458.25-16.15 457.45-16.9 456.45-16.9L456.45-16.9Q455.1-16.9 453.93-15.55 452.75-14.2 452.75-11.65L452.75-11.65Q452.75-10.1 453.1-8.3 453.45-6.5 453.45-5.25L453.45-5.25Q453.45-3.75 452.75-2.5 452.05-1.25 450.95-0.53 449.85 0.2 448.55 0.2ZM477 0.35L477 0.35Q473.35 0.35 470.95-1.13 468.55-2.6 467.35-5.03 466.15-7.45 466.15-10.25L466.15-10.25Q466.15-12.9 467.18-15.58 468.2-18.25 470.18-20.45 472.15-22.65 474.98-24 477.8-25.35 481.35-25.35L481.35-25.35Q485.75-25.35 487.78-23.38 489.8-21.4 489.8-18.6L489.8-18.6Q489.8-16.2 488.53-14.18 487.25-12.15 485.15-10.93 483.05-9.7 480.55-9.7L480.55-9.7Q479.25-9.7 477.9-10.1 476.55-10.5 475.25-11.35L475.25-11.35Q475.5-8.25 477.05-6.85 478.6-5.45 480.75-5.45L480.75-5.45Q482.25-5.45 483.75-6.03 485.25-6.6 486.53-7.53 487.8-8.45 488.5-9.5L488.5-9.5 488.85-9.25Q488.85-6.65 487.78-4.83 486.7-3 484.95-1.85 483.2-0.7 481.13-0.18 479.05 0.35 477 0.35ZM478.15-13.15L478.15-13.15Q479.75-13.15 480.75-14.08 481.75-15 482.25-16.25 482.75-17.5 482.75-18.45L482.75-18.45Q482.75-19.6 482.1-20.38 481.45-21.15 480.3-21.15L480.3-21.15Q479.4-21.15 478.33-20.5 477.25-19.85 476.4-18.28 475.55-16.7 475.3-13.9L475.3-13.9Q476.9-13.15 478.15-13.15ZM499.35 0.2L499.35 0.2Q496.75 0.2 495.12-1.33 493.5-2.85 493.5-6.05L493.5-6.05Q493.5-7.65 493.87-9.43 494.25-11.2 494.72-12.93 495.2-14.65 495.55-16.05 495.9-17.45 495.9-18.3L495.9-18.3Q495.9-19.15 495.55-19.53 495.2-19.9 494.7-19.9L494.7-19.9Q494.2-19.9 493.7-19.58 493.2-19.25 492.85-18.6L492.85-18.6 492.45-18.75Q492.55-20.8 493.6-22.25 494.65-23.7 496.22-24.45 497.8-25.2 499.4-25.2L499.4-25.2Q500.7-25.2 501.9-24.68 503.1-24.15 503.82-23.08 504.55-22 504.5-20.35L504.5-20.35Q504.45-19.25 504.1-17.65 503.75-16.05 503.27-14.23 502.8-12.4 502.45-10.7 502.1-9 502.1-7.7L502.1-7.7Q502.1-6.6 502.42-5.95 502.75-5.3 503.55-5.3L503.55-5.3Q504.4-5.3 505.8-6.2 507.2-7.1 508.6-8.8L508.6-8.8Q508.3-11.6 508.3-13.75L508.3-13.75Q508.3-19.25 509.92-21.7 511.55-24.15 514-24.15L514-24.15Q515.8-24.15 516.45-22.95 517.1-21.75 517.1-19.75L517.1-19.75Q517.1-16.8 516.1-14.2 515.1-11.6 513.75-10.05L513.75-10.05Q513.85-7.8 514.67-6.55 515.5-5.3 516.65-5.3L516.65-5.3Q517.8-5.3 519.02-6.6 520.25-7.9 521.15-10.6 522.05-13.3 522.2-17.45L522.2-17.45Q522.25-20.8 521.75-22.35L521.75-22.35 521.75-22.6Q522.45-23.75 523.97-24.58 525.5-25.4 527.05-25.4L527.05-25.4Q528.15-25.4 529.07-24.78 530-24.15 530.55-22.48 531.1-20.8 530.95-17.65L530.95-17.65Q530.8-13.25 529.5-9.93 528.2-6.6 526.17-4.35 524.15-2.1 521.8-0.95 519.45 0.2 517.15 0.2L517.15 0.2Q514.55 0.2 512.4-1.23 510.25-2.65 509.15-5.25L509.15-5.25Q506.9-2.9 504.52-1.35 502.15 0.2 499.35 0.2ZM542.64-26.75L542.64-26.75Q540.64-26.75 539.37-27.98 538.1-29.2 538.1-31.05L538.1-31.05Q538.1-33.05 539.6-34.5 541.1-35.95 543.25-35.95L543.25-35.95Q545.25-35.95 546.52-34.7 547.79-33.45 547.79-31.6L547.79-31.6Q547.79-29.6 546.29-28.18 544.79-26.75 542.64-26.75ZM539.14 0.2L539.14 0.2Q537.2 0.2 535.64-1.18 534.1-2.55 534.1-5.6L534.1-5.6Q534.1-7.35 534.57-8.88 535.04-10.4 535.67-11.85 536.29-13.3 536.77-14.68 537.25-16.05 537.25-17.4L537.25-17.4Q537.25-18.6 536.85-19.13 536.45-19.65 535.89-19.65L535.89-19.65Q535.04-19.65 534.25-18.55L534.25-18.55 533.89-18.75Q534.1-20.75 535.17-22.18 536.25-23.6 537.82-24.4 539.39-25.2 540.95-25.2L540.95-25.2Q542.85-25.2 544.25-23.98 545.64-22.75 545.64-20L545.64-20Q545.64-18.35 545.17-16.53 544.7-14.7 544.07-12.9 543.45-11.1 542.97-9.55 542.5-8 542.5-6.9L542.5-6.9Q542.5-5.95 542.87-5.55 543.25-5.15 543.7-5.15L543.7-5.15Q544.14-5.15 544.57-5.43 545-5.7 545.2-6.05L545.2-6.05 545.54-5.95Q545.54-4.1 544.57-2.73 543.6-1.35 542.14-0.58 540.7 0.2 539.14 0.2ZM555.34 0.15L555.34 0.15Q553.49 0.15 551.99-1.33 550.49-2.8 550.49-5.45L550.49-5.45Q550.49-6.75 550.84-8.4 551.19-10.05 551.62-11.75 552.04-13.45 552.39-14.95 552.74-16.45 552.74-17.4L552.74-17.4Q552.74-18.4 552.34-18.98 551.94-19.55 551.29-19.55L551.29-19.55Q550.44-19.55 549.44-18.55L549.44-18.55 549.14-18.75Q549.09-19.55 549.49-20.65 549.89-21.75 550.72-22.78 551.54-23.8 552.84-24.5 554.14-25.2 555.94-25.2L555.94-25.2Q558.59-25.2 559.87-23.68 561.14-22.15 561.14-19.95L561.14-19.95Q561.14-19.15 560.99-18.4L560.99-18.4Q562.04-19.95 563.59-21.53 565.14-23.1 567.02-24.15 568.89-25.2 570.89-25.2L570.89-25.2Q573.24-25.2 574.09-23.7 574.94-22.2 574.94-19.95L574.94-19.95Q574.94-17.85 574.49-15.45 574.04-13.05 573.59-10.83 573.14-8.6 573.14-7.1L573.14-7.1Q573.14-5.1 574.29-5.1L574.29-5.1Q574.89-5.1 575.34-5.48 575.79-5.85 575.94-6.2L575.94-6.2 576.29-6.05Q576.29-4.2 575.27-2.8 574.24-1.4 572.69-0.63 571.14 0.15 569.54 0.15L569.54 0.15Q567.59 0.15 566.09-1.2 564.59-2.55 564.59-5.6L564.59-5.6Q564.59-7.4 565.07-9.5 565.54-11.6 565.99-13.55 566.44-15.5 566.44-16.75L566.44-16.75Q566.44-17.5 566.17-17.93 565.89-18.35 565.19-18.35L565.19-18.35Q564.04-18.35 562.67-17.3 561.29-16.25 560.32-14.5 559.34-12.75 559.34-10.65L559.34-10.65Q559.34-9.3 559.67-8.05 559.99-6.8 559.99-5.35L559.99-5.35Q559.99-2.65 558.59-1.25 557.19 0.15 555.34 0.15ZM591.09 10L591.09 10Q588.64 10 587.04 8.55 585.44 7.1 585.44 4.45L585.44 4.45Q585.44 1.6 587.44-2.25L587.44-2.25Q587.09-2.15 586.74-2.1 586.39-2.05 586.04-2.05L586.04-2.05Q583.14-2.05 581.16-4.58 579.19-7.1 579.19-11.6L579.19-11.6Q579.19-15.65 580.76-18.75 582.34-21.85 584.79-23.6 587.24-25.35 589.89-25.35L589.89-25.35Q591.74-25.35 593.24-24.43 594.74-23.5 595.69-21.45L595.69-21.45Q595.74-21.95 595.74-22.35 595.74-22.75 595.74-23.1L595.74-23.1Q595.74-23.95 597.04-24.5 598.34-25.05 599.94-25.05L599.94-25.05Q601.39-25.05 602.64-24.5 603.89-23.95 604.29-22.65L604.29-22.65 604.39-22.35Q603.94-21.95 603.61-19.75 603.29-17.55 602.84-13.65L602.84-13.65Q602.54-11.2 602.09-8.08 601.64-4.95 600.86-1.78 600.09 1.4 598.84 4.08 597.59 6.75 595.69 8.38 593.79 10 591.09 10ZM589.44-7.8L589.44-7.8Q590.89-7.8 592.66-10.18 594.44-12.55 595.49-17L595.49-17Q594.59-18.95 593.66-19.78 592.74-20.6 591.79-20.6L591.79-20.6Q590.54-20.6 589.44-19.35 588.34-18.1 587.66-16.18 586.99-14.25 586.99-12.2L586.99-12.2Q586.99-10.1 587.69-8.95 588.39-7.8 589.44-7.8ZM588.84 4.25L588.84 4.25Q590.54 4.25 592.31 0.93 594.09-2.4 594.79-8.45L594.79-8.45Q590.99-3.3 589.51-0.53 588.04 2.25 588.04 3.4L588.04 3.4Q588.04 4.25 588.84 4.25ZM619.33 0.25L619.33 0.25Q617.93 0.25 616.86-0.93 615.78-2.1 615.78-5.3L615.78-5.3Q615.78-5.85 615.81-6.28 615.83-6.7 615.83-6.9L615.83-6.9Q616.03-8.9 616.41-11.88 616.78-14.85 617.28-18.13 617.78-21.4 618.31-24.45 618.83-27.5 619.28-29.78 619.73-32.05 620.03-32.9L620.03-32.9Q620.58-34.4 622.01-35.27 623.43-36.15 624.93-36.15L624.93-36.15Q626.23-36.15 627.31-35.4 628.38-34.65 628.78-32.85L628.78-32.85Q628.48-31.85 627.83-29.33 627.18-26.8 626.43-23.15 625.68-19.5 625.01-15.1 624.33-10.7 623.93-5.9L623.93-5.9Q623.88-5.05 623.78-3.93 623.68-2.8 623.63-1.65L623.63-1.65Q623.03-1 621.83-0.38 620.63 0.25 619.33 0.25ZM638.68 0.2L638.68 0.2Q636.88 0.2 635.31-1.05 633.73-2.3 632.76-4.7 631.78-7.1 631.78-10.5L631.78-10.5Q631.78-14 632.78-16.75 633.78-19.5 635.41-21.43 637.03-23.35 638.96-24.35 640.88-25.35 642.73-25.35L642.73-25.35Q644.78-25.35 646.38-24.08 647.98-22.8 648.58-20.1L648.58-20.1Q649.03-22.6 649.36-24.88 649.68-27.15 649.68-28.9L649.68-28.9Q649.68-31.2 649.08-32.25L649.08-32.25 649.08-32.55Q650.23-33.85 651.61-34.48 652.98-35.1 654.23-35.1L654.23-35.1Q655.88-35.1 657.03-34.08 658.18-33.05 658.18-31.15L658.18-31.15Q658.18-30.1 657.83-28.05 657.48-26 656.98-23.38 656.48-20.75 655.96-17.98 655.43-15.2 655.08-12.68 654.73-10.15 654.73-8.3L654.73-8.3Q654.73-6.75 655.06-5.83 655.38-4.9 656.13-4.9L656.13-4.9Q656.68-4.9 657.26-5.28 657.83-5.65 658.03-6.15L658.03-6.15 658.38-5.9Q658.38-4.25 657.33-2.88 656.28-1.5 654.68-0.65 653.08 0.2 651.38 0.2L651.38 0.2Q649.53 0.2 648.46-0.83 647.38-1.85 646.93-3.45 646.48-5.05 646.43-6.75L646.43-6.75Q644.88-3.15 642.81-1.48 640.73 0.2 638.68 0.2ZM642.03-6.15L642.03-6.15Q643.33-6.15 644.93-8.5 646.53-10.85 647.73-15.35L647.73-15.35 648.03-16.9Q647.23-18.75 646.31-19.53 645.38-20.3 644.53-20.3L644.53-20.3Q643.28-20.3 642.18-18.93 641.08-17.55 640.41-15.43 639.73-13.3 639.73-10.95L639.73-10.95Q639.73-8.7 640.38-7.43 641.03-6.15 642.03-6.15ZM671.38 0.35L671.38 0.35Q667.73 0.35 665.33-1.13 662.93-2.6 661.73-5.03 660.53-7.45 660.53-10.25L660.53-10.25Q660.53-12.9 661.55-15.58 662.58-18.25 664.55-20.45 666.53-22.65 669.35-24 672.18-25.35 675.73-25.35L675.73-25.35Q680.13-25.35 682.15-23.38 684.18-21.4 684.18-18.6L684.18-18.6Q684.18-16.2 682.9-14.18 681.63-12.15 679.53-10.93 677.43-9.7 674.93-9.7L674.93-9.7Q673.63-9.7 672.28-10.1 670.93-10.5 669.63-11.35L669.63-11.35Q669.88-8.25 671.43-6.85 672.98-5.45 675.13-5.45L675.13-5.45Q676.63-5.45 678.13-6.03 679.63-6.6 680.9-7.53 682.18-8.45 682.88-9.5L682.88-9.5 683.23-9.25Q683.23-6.65 682.15-4.83 681.08-3 679.33-1.85 677.58-0.7 675.5-0.18 673.43 0.35 671.38 0.35ZM672.53-13.15L672.53-13.15Q674.13-13.15 675.13-14.08 676.13-15 676.63-16.25 677.13-17.5 677.13-18.45L677.13-18.45Q677.13-19.6 676.48-20.38 675.83-21.15 674.68-21.15L674.68-21.15Q673.78-21.15 672.7-20.5 671.63-19.85 670.78-18.28 669.93-16.7 669.68-13.9L669.68-13.9Q671.28-13.15 672.53-13.15ZM704.88 0.25L704.88 0.25Q703.13 0.25 701.83-0.9 700.53-2.05 700.53-4.65L700.53-4.65Q700.53-4.9 700.53-5.15 700.53-5.4 700.58-5.65L700.58-5.65Q699.08-2.65 697.2-1.23 695.33 0.2 693.43 0.2L693.43 0.2Q691.68 0.2 690.13-1.03 688.58-2.25 687.63-4.65 686.68-7.05 686.68-10.45L686.68-10.45Q686.68-13.95 687.65-16.7 688.63-19.45 690.23-21.35 691.83-23.25 693.73-24.23 695.63-25.2 697.43-25.2L697.43-25.2Q699.43-25.2 701.03-23.98 702.63-22.75 703.23-20.1L703.23-20.1Q703.38-20.95 703.45-21.65 703.53-22.35 703.53-22.6L703.53-22.6Q703.58-23.95 704.9-24.6 706.23-25.25 707.83-25.25L707.83-25.25Q709.23-25.25 710.48-24.7 711.73-24.15 712.18-22.85L712.18-22.85 712.28-22.55Q711.68-21.2 711.08-19.3 710.48-17.4 709.98-15.33 709.48-13.25 709.18-11.28 708.88-9.3 708.88-7.8L708.88-7.8Q708.88-6.15 709.23-5.53 709.58-4.9 710.08-4.9L710.08-4.9Q710.93-4.9 711.63-6.1L711.63-6.1 712.03-5.9Q712.03-4.2 710.93-2.8 709.83-1.4 708.18-0.58 706.53 0.25 704.88 0.25ZM696.73-6.1L696.73-6.1Q698.03-6.1 699.6-8.43 701.18-10.75 702.33-15.1L702.33-15.1Q702.43-15.55 702.53-15.98 702.63-16.4 702.68-16.8L702.68-16.8Q701.88-18.65 701-19.43 700.13-20.2 699.28-20.2L699.28-20.2Q698.03-20.2 696.95-18.88 695.88-17.55 695.2-15.55 694.53-13.55 694.53-11.55L694.53-11.55Q694.53-8.8 695.15-7.45 695.78-6.1 696.73-6.1ZM723.37 0.45L723.37 0.45Q720.27 0.45 718.22-0.4 716.17-1.25 715.17-2.58 714.17-3.9 714.17-5.25L714.17-5.25Q714.17-7.15 715.87-8.63 717.57-10.1 720.47-10.1L720.47-10.1Q720.47-7.55 721.12-6.03 721.77-4.5 722.8-3.85 723.82-3.2 724.77-3.2L724.77-3.2Q725.92-3.2 726.7-3.88 727.47-4.55 727.47-5.55L727.47-5.55Q727.47-6.95 726.02-8 724.57-9.05 722.27-10.35L722.27-10.35Q721.12-11.05 719.77-11.98 718.42-12.9 717.47-14.23 716.52-15.55 716.52-17.4L716.52-17.4Q716.52-19.35 717.65-20.85 718.77-22.35 720.62-23.38 722.47-24.4 724.62-24.93 726.77-25.45 728.82-25.45L728.82-25.45Q732.67-25.45 734.62-23.9 736.57-22.35 736.57-20.6L736.57-20.6Q736.57-19.1 735.07-17.9 733.57-16.7 730.47-16.7L730.47-16.7Q730.52-19.25 729.42-20.43 728.32-21.6 727.07-21.6L727.07-21.6Q726.17-21.6 725.57-21.05 724.97-20.5 724.97-19.45L724.97-19.45Q724.97-18.25 725.75-17.38 726.52-16.5 727.7-15.83 728.87-15.15 730.12-14.55L730.12-14.55Q731.82-13.75 733.32-12.85 734.82-11.95 735.77-10.8 736.72-9.65 736.72-8L736.72-8Q736.72-5.75 734.9-3.83 733.07-1.9 730.02-0.73 726.97 0.45 723.37 0.45Z" opacity="1" transform="matrix(1,0,0,1,0,0)" fill="#1d597d" class="slogan-text-1" data-fill-palette-color="secondary" id="text-1"></path></svg></g></svg></g></svg></g></svg></g></svg></g></svg></g><defs></defs></svg><rect width="395.52" height="64.10158739160447" fill="none" stroke="none" visibility="hidden"></rect></g></svg></g></svg>